<svg xmlns="http://www.w3.org/2000/svg" viewBox="0 0 1000 1000"><path d="M280.63,608.32a121.28,121.28,0,0,1,20.08-1.57c10.34,0,17.91,2.41,22.72,6.74,4.45,3.85,7.1,9.74,7.1,17s-2.17,13.11-6.26,17.32c-5.53,5.89-14.54,8.89-24.77,8.89a36,36,0,0,1-8.41-.72V688.4H280.63Zm10.46,39.08a35.13,35.13,0,0,0,8.66.84c12.62,0,20.32-6.13,20.32-17.32,0-10.7-7.58-15.87-19.12-15.87a44,44,0,0,0-9.86.84Z" style="fill:#42210b"/><path d="M373.33,688.4l-.84-7.34h-.36a21.68,21.68,0,0,1-17.8,8.66c-11.78,0-17.79-8.3-17.79-16.71,0-14.07,12.5-21.77,35-21.65v-1.2c0-4.81-1.32-13.47-13.23-13.47A29.05,29.05,0,0,0,343.15,641l-2.4-7c4.81-3.13,11.78-5.17,19.12-5.17,17.79,0,22.12,12.14,22.12,23.81v21.76a82.14,82.14,0,0,0,1,13.95Zm-1.56-29.7c-11.54-.24-24.65,1.8-24.65,13.1,0,6.86,4.57,10.1,10,10.1a14.49,14.49,0,0,0,14.07-9.73,11.14,11.14,0,0,0,.6-3.37Z" style="fill:#42210b"/><path d="M440.54,686.23c-2.76,1.45-8.89,3.37-16.71,3.37-17.55,0-29-11.9-29-29.7S407.12,629,426.12,629a35.46,35.46,0,0,1,14.67,3l-2.41,8.18c-2.52-1.44-6.49-2.76-12.26-2.76-13.35,0-20.56,9.86-20.56,22,0,13.47,8.65,21.76,20.2,21.76a30.06,30.06,0,0,0,13-2.88Z" style="fill:#42210b"/><path d="M452.93,603h10.58v36.31h.24a19.63,19.63,0,0,1,7.58-7.46,21.78,21.78,0,0,1,10.82-3c7.81,0,20.32,4.81,20.32,24.89V688.4H491.89V655c0-9.38-3.49-17.31-13.47-17.31a15.22,15.22,0,0,0-14.19,10.58,12.81,12.81,0,0,0-.72,5V688.4H452.93Z" style="fill:#42210b"/><path d="M551.88,688.4l-.84-7.34h-.36a21.66,21.66,0,0,1-17.79,8.66c-11.79,0-17.8-8.3-17.8-16.71,0-14.07,12.51-21.77,35-21.65v-1.2c0-4.81-1.32-13.47-13.23-13.47A29.05,29.05,0,0,0,521.7,641l-2.4-7c4.81-3.13,11.78-5.17,19.12-5.17,17.79,0,22.12,12.14,22.12,23.81v21.76a82.14,82.14,0,0,0,1,13.95Zm-1.56-29.7c-11.54-.24-24.65,1.8-24.65,13.1,0,6.86,4.57,10.1,10,10.1a14.48,14.48,0,0,0,14.07-9.73,11.14,11.14,0,0,0,.6-3.37Z" style="fill:#42210b"/><path d="M587.71,616.25H563.07v-8.89h60v8.89H598.29V688.4H587.71Z" style="fill:#42210b"/><path d="M629.08,661.22c.24,14.31,9.37,20.2,20,20.2,7.57,0,12.14-1.32,16.11-3L667,686c-3.73,1.69-10.1,3.61-19.36,3.61-17.91,0-28.61-11.78-28.61-29.34s10.34-31.38,27.29-31.38c19,0,24.05,16.71,24.05,27.41a39.86,39.86,0,0,1-.36,4.93Zm31-7.57c.12-6.73-2.77-17.2-14.67-17.2-10.7,0-15.39,9.86-16.23,17.2Z" style="fill:#42210b"/><path d="M724.9,686.23c-2.76,1.45-8.89,3.37-16.71,3.37-17.55,0-29-11.9-29-29.7S691.48,629,710.48,629a35.37,35.37,0,0,1,14.66,3l-2.4,8.18c-2.53-1.44-6.49-2.76-12.26-2.76-13.35,0-20.56,9.86-20.56,22,0,13.47,8.65,21.76,20.2,21.76a30.1,30.1,0,0,0,13-2.88Z" style="fill:#42210b"/><circle cx="500" cy="379.98" r="194.12" style="fill:#59bd63;stroke:#000;stroke-miterlimit:10;stroke-width:7px"/><path d="M389.42,351l28.65,26.63c56.33,56.34,141.55-17.32,72.92-85.94l-50.73-49c-12.88-12.88-28.37,3.17-16.13,15.42.68.67,29.3,29.57,29.3,29.57L405.51,239.3c-10-10-25.34,2.92-11.67,16.59l44.42,47.8-53.8-55.16c-12.58-12.59-29.27,3.68-16.73,16.22l53.67,52.9-41.57-39.34c-9.81-9.81-23.95,8.11-14.77,17.29l64,62.51-26.16-25.54C392,321.62,376.17,337.71,389.42,351Z" style="fill:#fff;stroke:#000;stroke-miterlimit:10;stroke-width:5px"/><path d="M610.58,351l-28.65,26.63C525.6,433.93,440.38,360.27,509,291.65l50.73-49c12.88-12.88,28.37,3.17,16.13,15.42-.68.67-29.3,29.57-29.3,29.57l47.92-48.37c10-10,25.34,2.92,11.67,16.59l-44.42,47.8,53.8-55.16c12.58-12.59,29.27,3.68,16.73,16.22l-53.67,52.9,41.57-39.34c9.81-9.81,24,8.11,14.77,17.29l-64,62.51,26.16-25.54C608,321.62,623.83,337.71,610.58,351Z" style="fill:#fff;stroke:#000;stroke-miterlimit:10;stroke-width:5px"/><path d="M610.58,416.92l-28.65-26.64C525.6,334,440.38,407.61,509,476.23l50.73,49c12.88,12.88,28.37-3.18,16.13-15.42l-29.3-29.57,47.92,48.37c10,10,25.34-2.92,11.67-16.59l-44.42-47.8,53.8,55.16c12.58,12.59,29.27-3.68,16.73-16.22l-53.67-52.9,41.57,39.34c9.81,9.81,24-8.12,14.77-17.29l-64-62.51,26.16,25.54C608,446.26,623.83,430.17,610.58,416.92Z" style="fill:#fff;stroke:#000;stroke-miterlimit:10;stroke-width:5px"/><path d="M389.42,416.92l28.65-26.64C474.4,334,559.62,407.6,491,476.23l-50.73,49c-12.88,12.88-28.37-3.18-16.13-15.42.68-.67,29.3-29.57,29.3-29.57l-47.92,48.37c-10,10-25.34-2.92-11.67-16.59l44.42-47.8-53.8,55.16c-12.58,12.59-29.27-3.68-16.73-16.22l53.67-52.9-41.57,39.34c-9.81,9.81-23.95-8.12-14.77-17.29l64-62.51-26.16,25.54C392,446.26,376.17,430.17,389.42,416.92Z" style="fill:#fff;stroke:#000;stroke-miterlimit:10;stroke-width:5px"/><path d="M498.53,385.77s-27.48-37.77-75.42-.31c0,0,37.76,42.13,76.54,1.43,34.54-36.24,77.24-1,77.24-1s-42.2,34.48-75.24,1.64" style="fill:#39b54a;stroke:#000;stroke-miterlimit:10;stroke-width:5px"/><path d="M500,387.5s38.9-33.73,1.44-84.6c0,0-42.13,40.07-1.44,81.23,36.25,36.66,1,82,1,82s-38.19-45.17-.51-78.8" style="fill:#39b54a;stroke:#000;stroke-miterlimit:10;stroke-width:5px"/><path d="M500,334.82c1,8.46,1.58,16.92,1.94,25.38s.55,16.91.56,25.37-.15,16.92-.55,25.37S501,427.86,500,436.32c-1-8.46-1.58-16.92-1.95-25.38s-.55-16.91-.55-25.37.16-16.92.56-25.37S499,343.28,500,334.82Z"/><path d="M449.25,385.57c8.46-1,16.92-1.58,25.38-1.94s16.91-.55,25.37-.56,16.92.15,25.37.55,16.92.91,25.38,1.95c-8.46,1-16.92,1.58-25.38,1.95s-16.91.55-25.37.55-16.92-.16-25.37-.56S457.71,386.6,449.25,385.57Z"/><path d="M147.71,739c0,6-3.9,9.83-10,9.83H132.2V729.11h5.48C143.81,729.1,147.71,732.93,147.71,739Zm-2.23,0c0-4.65-3-7.65-7.81-7.65h-3.25v15.26h3.28C142.44,746.57,145.48,743.59,145.48,739Z" style="fill:#00173d"/><path d="M153.05,731.3v6.22h8.09v2.23h-8.09v6.83h9.33v2.21H150.82V729.11h11.56v2.19Z" style="fill:#00173d"/><path d="M164.67,745.28l1.71-1.26a5.71,5.71,0,0,0,5,2.81c2.57,0,4.67-1.4,4.67-3.34,0-2.21-2.82-3.27-5.33-4.22s-5.12-2.12-5.12-5.16,2.73-5.29,6.18-5.29a5.75,5.75,0,0,1,5.64,3.54l-1.67,1.12a4.32,4.32,0,0,0-4-2.47c-2.11,0-3.92,1.39-3.92,3.14,0,1.91,2.16,2.6,4.7,3.58,2.95,1.2,5.75,2.56,5.75,5.73,0,3.39-3.14,5.6-6.92,5.6A7.15,7.15,0,0,1,164.67,745.28Z" style="fill:#00173d"/><path d="M193,745.56H182.29l-1.44,3.23h-2.4l9.09-20h.25l9.1,20h-2.41Zm-.86-1.93-4.5-10.12-4.52,10.12Z" style="fill:#00173d"/><path d="M210.68,748.79l-5.5-7.68h-3.67v7.68h-2.22l0-19.68h5.81a6.47,6.47,0,0,1,6.63,6.28,5.76,5.76,0,0,1-4.14,5.47l5.85,7.93Zm-5.52-9.54a4,4,0,1,0,0-7.94H201.5v7.92Z" style="fill:#00173d"/><path d="M227.11,748.79l-5.5-7.68h-3.67v7.68h-2.22l0-19.68h5.82a6.46,6.46,0,0,1,6.62,6.28,5.77,5.77,0,0,1-4.13,5.47l5.84,7.93Zm-5.52-9.54a4,4,0,1,0,0-7.94h-3.66v7.92Z" style="fill:#00173d"/><path d="M231.1,739a10.11,10.11,0,1,1,10.09,10.09A10.15,10.15,0,0,1,231.1,739Zm18,0a7.87,7.87,0,1,0-7.89,7.85A7.9,7.9,0,0,0,249.08,739Z" style="fill:#00173d"/><path d="M266.3,746.58v2.21H254.44V729.11h2.22v17.47Z" style="fill:#00173d"/><path d="M280.87,746.58v2.21H269V729.11h2.22v17.47Z" style="fill:#00173d"/><path d="M296.7,745.56H286l-1.44,3.23h-2.41l9.1-20h.24l9.11,20h-2.42Zm-.86-1.93-4.5-10.12-4.52,10.12Z" style="fill:#00173d"/><path d="M318.76,729.06v20h-.11l-13.49-15v14.7h-2.22v-20h.12l13.47,15V729.06Z" style="fill:#00173d"/><path d="M338.42,739c0,6-3.9,9.83-10,9.83h-5.48V729.11h5.48C334.52,729.1,338.42,732.93,338.42,739Zm-2.23,0c0-4.65-3.05-7.65-7.81-7.65h-3.25v15.26h3.28C333.15,746.57,336.19,743.59,336.19,739Z" style="fill:#00173d"/><path d="M340.5,739a10.11,10.11,0,1,1,10.09,10.09A10.15,10.15,0,0,1,340.5,739Zm18,0a7.87,7.87,0,1,0-7.89,7.85A7.9,7.9,0,0,0,358.48,739Z" style="fill:#00173d"/><path d="M369.92,745.28l1.7-1.26a5.74,5.74,0,0,0,5,2.81c2.57,0,4.67-1.4,4.67-3.34,0-2.21-2.82-3.27-5.33-4.22s-5.12-2.12-5.12-5.16,2.73-5.29,6.18-5.29a5.75,5.75,0,0,1,5.64,3.54L381,733.48a4.32,4.32,0,0,0-4-2.47c-2.12,0-3.92,1.39-3.92,3.14,0,1.91,2.16,2.6,4.7,3.58,3,1.2,5.75,2.56,5.75,5.73,0,3.39-3.14,5.6-6.92,5.6A7.15,7.15,0,0,1,369.92,745.28Z" style="fill:#00173d"/><path d="M385.39,739a10.12,10.12,0,1,1,10.1,10.09A10.16,10.16,0,0,1,385.39,739Zm18,0a7.87,7.87,0,1,0-7.89,7.85A7.9,7.9,0,0,0,403.38,739Z" style="fill:#00173d"/><path d="M420.6,746.58v2.21H408.73V729.11H411v17.47Z" style="fill:#00173d"/><path d="M423.09,741.15v-12h2.23v12c0,3.31,2.15,5.71,5.06,5.71s5.05-2.42,5.05-5.71v-12h2.24v12c0,4.59-3.11,8-7.29,8S423.09,745.74,423.09,741.15Z" style="fill:#00173d"/><path d="M440.57,739a10.2,10.2,0,0,1,10.11-10.13,9.89,9.89,0,0,1,6.76,3l-1.29,1.75a7.85,7.85,0,0,0-5.56-2.47,7.86,7.86,0,1,0,5.57,13.28l1.28,1.78a9.35,9.35,0,0,1-6.75,2.9A10.18,10.18,0,0,1,440.57,739Z" style="fill:#00173d"/><path d="M460.14,729.11h2.22v19.68h-2.22Z" style="fill:#00173d"/><path d="M465.47,739a10.12,10.12,0,1,1,10.1,10.09A10.16,10.16,0,0,1,465.47,739Zm18,0a7.87,7.87,0,1,0-7.88,7.85A7.9,7.9,0,0,0,483.45,739Z" style="fill:#00173d"/><path d="M504.63,729.06v20h-.11l-13.49-15v14.7h-2.22v-20h.12l13.48,15V729.06Z" style="fill:#00173d"/><path d="M511,731.3v6.22h8.1v2.23H511v6.83h9.34v2.21H508.78V729.11h11.56v2.19Z" style="fill:#00173d"/><path d="M522.63,745.28l1.7-1.26a5.74,5.74,0,0,0,5,2.81c2.57,0,4.67-1.4,4.67-3.34,0-2.21-2.82-3.27-5.33-4.22s-5.12-2.12-5.12-5.16,2.73-5.29,6.18-5.29a5.75,5.75,0,0,1,5.64,3.54l-1.67,1.12a4.32,4.32,0,0,0-4-2.47c-2.12,0-3.92,1.39-3.92,3.14,0,1.91,2.16,2.6,4.7,3.58,3,1.2,5.75,2.56,5.75,5.73,0,3.39-3.14,5.6-6.92,5.6A7.15,7.15,0,0,1,522.63,745.28Z" style="fill:#00173d"/><path d="M546.47,729.11h6.23c3.81,0,6.92,2.86,6.92,6.35s-3.11,6.07-6.92,6.07h-4v7.26h-2.22Zm10.93,6.33a4.45,4.45,0,0,0-4.7-4.13h-4v8h4C555.29,739.36,557.4,737.6,557.4,735.44Z" style="fill:#00173d"/><path d="M571.49,745.56H560.75l-1.44,3.23H556.9l9.1-20h.24l9.11,20h-2.42Zm-.85-1.93-4.51-10.12-4.51,10.12Z" style="fill:#00173d"/><path d="M589.13,748.79l-5.49-7.68H580v7.68h-2.22V729.11h5.81a6.47,6.47,0,0,1,6.63,6.28,5.78,5.78,0,0,1-4.14,5.47l5.85,7.93Zm-5.52-9.54a4,4,0,1,0,0-7.94H580v7.92Z" style="fill:#00173d"/><path d="M607,745.56H596.25l-1.44,3.23H592.4l9.1-20h.24l9.11,20h-2.42Zm-.86-1.93-4.5-10.12-4.52,10.12Z" style="fill:#00173d"/><path d="M632.75,731.31H627v17.48h-2.22V731.31H619.1v-2.2h13.65Z" style="fill:#00173d"/><path d="M635.24,741.15v-12h2.23v12c0,3.31,2.15,5.71,5,5.71s5.06-2.42,5.06-5.71v-12h2.23v12c0,4.59-3.1,8-7.29,8S635.24,745.74,635.24,741.15Z" style="fill:#00173d"/><path d="M663.3,731.27v6.56h8.09v2.22H663.3v8.77h-2.22V729.06h11.56v2.21Z" style="fill:#00173d"/><path d="M675.13,741.15v-12h2.23v12c0,3.31,2.15,5.71,5.06,5.71s5.05-2.42,5.05-5.71v-12h2.23v12c0,4.59-3.1,8-7.28,8S675.13,745.74,675.13,741.15Z" style="fill:#00173d"/><path d="M705.84,731.31h-5.7v17.48h-2.22V731.31h-5.73v-2.2h13.65Z" style="fill:#00173d"/><path d="M708.33,741.15v-12h2.24v12c0,3.31,2.14,5.71,5,5.71s5-2.42,5-5.71v-12h2.24v12c0,4.59-3.1,8-7.29,8S708.33,745.74,708.33,741.15Z" style="fill:#00173d"/><path d="M738.25,748.79l-5.49-7.68h-3.68v7.68h-2.22V729.11h5.81a6.47,6.47,0,0,1,6.63,6.28,5.78,5.78,0,0,1-4.14,5.47l5.85,7.93Zm-5.52-9.54a4,4,0,1,0,0-7.94h-3.66v7.92Z" style="fill:#00173d"/><path d="M742.24,739a10.12,10.12,0,1,1,10.1,10.09A10.16,10.16,0,0,1,742.24,739Zm18,0a7.87,7.87,0,1,0-7.88,7.85A7.9,7.9,0,0,0,760.22,739Z" style="fill:#00173d"/><path d="M788.42,739c0,6-3.9,9.83-10,9.83h-5.48V729.11h5.48C784.52,729.1,788.42,732.93,788.42,739Zm-2.23,0c0-4.65-3.05-7.65-7.81-7.65h-3.25v15.26h3.28C783.15,746.57,786.19,743.59,786.19,739Z" style="fill:#00173d"/><path d="M791.53,729.11h2.23v19.68h-2.23Z" style="fill:#00173d"/><path d="M816.39,739.77a9.11,9.11,0,0,1-9.33,9.29,10.11,10.11,0,1,1-.08-20.22,11.28,11.28,0,0,1,7.13,3l-1.25,1.84a9.12,9.12,0,0,0-5.9-2.57,7.87,7.87,0,1,0,.19,15.74c3.84,0,6.87-2.57,6.87-6,0-.15,0-.28,0-.39H807v-2h9.35A11.53,11.53,0,0,1,816.39,739.77Z" style="fill:#00173d"/><path d="M819.5,729.11h2.22v19.68H819.5Z" style="fill:#00173d"/><path d="M838.07,731.31h-5.7v17.48h-2.22V731.31h-5.73v-2.2h13.65Z" style="fill:#00173d"/><path d="M851.15,745.56H840.41L839,748.79h-2.4l9.09-20h.24l9.11,20h-2.42Zm-.85-1.93-4.51-10.12-4.51,10.12Z" style="fill:#00173d"/><path d="M869.26,746.58v2.21H857.39V729.11h2.22v17.47Z" style="fill:#00173d"/></svg>