<svg xmlns="http://www.w3.org/2000/svg" viewBox="0 0 1000 500"><circle cx="220.19" cy="256.67" r="170.03" style="fill:#59bd63;stroke:#000;stroke-miterlimit:10;stroke-width:7px"/><path d="M123.34,231.25l25.09,23.33c49.34,49.34,124-15.17,63.87-75.28l-44.44-42.89c-11.28-11.28-24.84,2.78-14.12,13.5l25.66,25.91-42-42.37c-8.76-8.77-22.2,2.56-10.22,14.53l38.9,41.87L119,141.53c-11-11-25.63,3.23-14.65,14.21l47,46.34-36.4-34.46c-8.59-8.6-21,7.11-12.94,15.14l56.09,54.75s-22.7-22.15-22.91-22.37C125.58,205.55,111.73,219.64,123.34,231.25Z" style="fill:#fff;stroke:#000;stroke-miterlimit:10;stroke-width:5px"/><path d="M317,231.25,292,254.58c-49.34,49.34-124-15.17-63.87-75.28l44.43-42.89c11.28-11.28,24.85,2.78,14.13,13.5L261,175.82l42-42.37c8.76-8.77,22.19,2.56,10.22,14.53l-38.9,41.87,47.11-48.32c11-11,25.64,3.23,14.66,14.21l-47,46.34,36.41-34.46c8.59-8.6,21,7.11,12.94,15.14l-56.1,54.75S305,215.36,305.2,215.14C314.79,205.55,328.65,219.64,317,231.25Z" style="fill:#fff;stroke:#000;stroke-miterlimit:10;stroke-width:5px"/><path d="M317,289,292,265.69c-49.34-49.34-124,15.17-63.87,75.28l44.43,42.89c11.28,11.28,24.85-2.78,14.13-13.5L261,344.45l42,42.37c8.76,8.77,22.19-2.55,10.22-14.53l-38.9-41.86,47.11,48.31c11,11,25.64-3.22,14.66-14.21l-47-46.34,36.41,34.47c8.59,8.59,21-7.11,12.94-15.15l-56.1-54.75,22.92,22.37C314.79,314.72,328.65,300.63,317,289Z" style="fill:#fff;stroke:#000;stroke-miterlimit:10;stroke-width:5px"/><path d="M123.34,289l25.09-23.33c49.34-49.34,124,15.17,63.87,75.28l-44.44,42.89c-11.28,11.28-24.84-2.78-14.12-13.5l25.66-25.91-42,42.37c-8.76,8.77-22.2-2.55-10.22-14.53l38.9-41.86L119,378.74c-11,11-25.63-3.22-14.65-14.21l47-46.34-36.4,34.47c-8.59,8.59-21-7.11-12.94-15.15l56.09-54.75-22.91,22.37C125.58,314.72,111.73,300.63,123.34,289Z" style="fill:#fff;stroke:#000;stroke-miterlimit:10;stroke-width:5px"/><path d="M218.9,261.74s-24.07-33.09-66.06-.27c0,0,33.07,36.9,67,1.25,30.26-31.75,67.65-.87,67.65-.87s-37,30.2-65.89,1.43" style="fill:#39b54a;stroke:#000;stroke-miterlimit:10;stroke-width:5px"/><path d="M220.19,263.26s34.07-29.55,1.26-74.11c0,0-36.9,35.1-1.26,71.15,31.75,32.12.87,71.81.87,71.81s-33.44-39.57-.44-69" style="fill:#39b54a;stroke:#000;stroke-miterlimit:10;stroke-width:5px"/><path d="M220.19,217.12c1,7.4,1.56,14.81,2,22.22s.53,14.82.54,22.22-.17,14.82-.54,22.23-.91,14.81-2,22.22c-1.05-7.41-1.57-14.81-2-22.22s-.53-14.82-.53-22.23.17-14.81.54-22.22S219.15,224.52,220.19,217.12Z"/><path d="M175.74,261.56c7.41-1,14.82-1.56,22.22-1.95s14.82-.54,22.23-.54,14.81.16,22.22.53,14.82.92,22.23,2c-7.41,1.05-14.82,1.57-22.23,2s-14.81.54-22.22.53-14.82-.17-22.23-.54S183.15,262.61,175.74,261.56Z"/><path d="M423.58,194.85A142.84,142.84,0,0,1,447.21,193c12.17,0,21.09,2.83,26.75,7.93,5.24,4.52,8.35,11.46,8.35,19.95s-2.55,15.42-7.36,20.38c-6.51,6.93-17.12,10.47-29.15,10.47a42.27,42.27,0,0,1-9.91-.85V289.1H423.58Zm12.31,46a41.21,41.21,0,0,0,10.19,1c14.86,0,23.92-7.21,23.92-20.37,0-12.6-8.92-18.68-22.5-18.68a51.53,51.53,0,0,0-11.61,1Z" style="fill:#42210b"/><path d="M532.69,289.1l-1-8.64h-.43a25.5,25.5,0,0,1-20.94,10.19c-13.87,0-20.94-9.76-20.94-19.67,0-16.55,14.71-25.61,41.18-25.47V244.1c0-5.66-1.56-15.85-15.57-15.85a34.14,34.14,0,0,0-17.83,5.09l-2.83-8.21c5.66-3.67,13.87-6.08,22.5-6.08,20.94,0,26,14.29,26,28v25.61A96.44,96.44,0,0,0,544,289.1Zm-1.84-35c-13.59-.28-29,2.13-29,15.43,0,8.06,5.38,11.89,11.75,11.89A17,17,0,0,0,530.14,270a12.82,12.82,0,0,0,.71-4Z" style="fill:#42210b"/><path d="M611.79,286.55c-3.25,1.7-10.47,4-19.67,4-20.66,0-34.1-14-34.1-34.95,0-21.09,14.43-36.37,36.79-36.37a41.63,41.63,0,0,1,17.27,3.54l-2.83,9.62c-3-1.7-7.64-3.25-14.44-3.25-15.71,0-24.2,11.6-24.2,25.89,0,15.85,10.19,25.62,23.78,25.62a35.33,35.33,0,0,0,15.28-3.4Z" style="fill:#42210b"/><path d="M626.37,188.62h12.45v42.74h.29a23,23,0,0,1,8.91-8.77,25.57,25.57,0,0,1,12.74-3.54c9.2,0,23.91,5.66,23.91,29.29V289.1H672.22V249.76c0-11-4.1-20.38-15.85-20.38-8.07,0-14.43,5.66-16.7,12.45a15.06,15.06,0,0,0-.85,5.95V289.1H626.37Z" style="fill:#42210b"/><path d="M742.83,289.1l-1-8.64h-.42a25.5,25.5,0,0,1-20.94,10.19c-13.87,0-21-9.76-21-19.67,0-16.55,14.72-25.61,41.18-25.47V244.1c0-5.66-1.56-15.85-15.56-15.85a34.14,34.14,0,0,0-17.83,5.09l-2.84-8.21c5.67-3.67,13.87-6.08,22.51-6.08,20.94,0,26,14.29,26,28v25.61a96.37,96.37,0,0,0,1.14,16.42Zm-1.84-35c-13.58-.28-29,2.13-29,15.43,0,8.06,5.38,11.89,11.75,11.89A17,17,0,0,0,740.29,270a13.11,13.11,0,0,0,.7-4Z" style="fill:#42210b"/><path d="M785,204.19H756V193.72h70.61v10.47H797.46V289.1H785Z" style="fill:#42210b"/><path d="M833.68,257.12c.29,16.84,11,23.77,23.49,23.77,8.92,0,14.3-1.56,19-3.54l2.12,8.92c-4.39,2-11.89,4.24-22.78,4.24-21.09,0-33.68-13.87-33.68-34.53s12.17-36.93,32.12-36.93c22.36,0,28.3,19.67,28.3,32.26a47.69,47.69,0,0,1-.42,5.81Zm36.51-8.92c.14-7.92-3.25-20.24-17.26-20.24-12.6,0-18.11,11.61-19.1,20.24Z" style="fill:#42210b"/><path d="M946.47,286.55c-3.26,1.7-10.47,4-19.67,4-20.66,0-34.11-14-34.11-34.95,0-21.09,14.44-36.37,36.8-36.37a41.54,41.54,0,0,1,17.26,3.54l-2.83,9.62c-3-1.7-7.64-3.25-14.43-3.25-15.71,0-24.2,11.6-24.2,25.89,0,15.85,10.19,25.62,23.77,25.62a35.35,35.35,0,0,0,15.29-3.4Z" style="fill:#42210b"/><path d="M434.7,324.68c0,4.27-2.75,6.94-7.16,6.94h-4v-13.9h4C432,317.71,434.7,320.38,434.7,324.68Zm-2.21,0c0-2.95-1.91-4.8-5-4.8h-1.78v9.56h1.8C430.59,329.44,432.49,327.61,432.49,324.68Z" style="fill:#00173d"/><path d="M438.88,319.87v3.56h5.26v2.17h-5.26v3.84H445v2.18H436.7v-13.9H445v2.15Z" style="fill:#00173d"/><path d="M446.44,329.18l1.72-1.24a3.5,3.5,0,0,0,3.12,1.71c1.56,0,2.74-.75,2.74-1.81,0-1.28-1.83-2.06-3.45-2.76s-3.44-1.57-3.44-3.75,2-3.86,4.47-3.86a4,4,0,0,1,4,2.48L454,321.07a2.59,2.59,0,0,0-2.4-1.46,2.07,2.07,0,0,0-2.29,1.77c0,1.09,1.28,1.48,3,2.2,2.2,1,3.91,2,3.91,4.22,0,2.46-2.14,4.05-5,4.05A5.13,5.13,0,0,1,446.44,329.18Z" style="fill:#00173d"/><path d="M466.14,329.5h-6.58l-.95,2.12h-2.36l6.54-14.19h.12l6.54,14.19h-2.36Zm-.85-1.87-2.44-5.43-2.44,5.43Z" style="fill:#00173d"/><path d="M478.63,331.62l-3.74-5.38h-1.71v5.38H471v-13.9h4.32a4.59,4.59,0,0,1,4.71,4.46,4.08,4.08,0,0,1-2.75,3.88l4,5.56Zm-3.27-7.19a2.39,2.39,0,0,0,2.41-2.3,2.33,2.33,0,0,0-2.41-2.25h-2.19v4.55Z" style="fill:#00173d"/><path d="M490.41,331.62l-3.74-5.38H485v5.38h-2.18v-13.9h4.32a4.59,4.59,0,0,1,4.71,4.46,4.08,4.08,0,0,1-2.75,3.88l4,5.56Zm-3.27-7.19a2.38,2.38,0,0,0,2.41-2.3,2.32,2.32,0,0,0-2.41-2.25H485v4.55Z" style="fill:#00173d"/><path d="M493.89,324.68a7.19,7.19,0,1,1,7.18,7.16A7.21,7.21,0,0,1,493.89,324.68Zm12.17,0a5,5,0,1,0-5,5A5,5,0,0,0,506.06,324.67Z" style="fill:#00173d"/><path d="M518.64,329.44v2.18h-8.38v-13.9h2.19v11.72Z" style="fill:#00173d"/><path d="M528.76,329.44v2.18h-8.38v-13.9h2.19v11.72Z" style="fill:#00173d"/><path d="M539.37,329.5h-6.58l-.95,2.12h-2.36L536,317.43h.13l6.54,14.19h-2.37Zm-.85-1.87-2.44-5.43-2.45,5.43Z" style="fill:#00173d"/><path d="M555.39,317.68v14.18h-.1l-8.89-9.29v9.06h-2.18V317.48h.11l8.87,9.27v-9.07Z" style="fill:#00173d"/><path d="M569.18,324.68c0,4.27-2.75,6.94-7.16,6.94h-4v-13.9h4C566.43,317.71,569.18,320.38,569.18,324.68Zm-2.2,0c0-2.95-1.92-4.8-5-4.8h-1.77v9.56H562C565.07,329.44,567,327.61,567,324.68Z" style="fill:#00173d"/><path d="M570.52,324.68a7.19,7.19,0,1,1,7.17,7.16A7.2,7.2,0,0,1,570.52,324.68Zm12.16,0a5,5,0,1,0-5,5A5,5,0,0,0,582.68,324.67Z" style="fill:#00173d"/><path d="M591.26,329.18l1.72-1.24a3.48,3.48,0,0,0,3.12,1.71c1.56,0,2.74-.75,2.74-1.81,0-1.28-1.83-2.06-3.45-2.76s-3.44-1.57-3.44-3.75,2-3.86,4.47-3.86a4,4,0,0,1,4,2.48l-1.62,1.12a2.59,2.59,0,0,0-2.4-1.46,2.07,2.07,0,0,0-2.29,1.77c0,1.09,1.28,1.48,3,2.2,2.2,1,3.91,2,3.91,4.22,0,2.46-2.14,4.05-5,4.05A5.13,5.13,0,0,1,591.26,329.18Z" style="fill:#00173d"/><path d="M602.23,324.68a7.19,7.19,0,1,1,7.18,7.16A7.21,7.21,0,0,1,602.23,324.68Zm12.17,0a5,5,0,1,0-5,5A5,5,0,0,0,614.4,324.67Z" style="fill:#00173d"/><path d="M627,329.44v2.18H618.6v-13.9h2.18v11.72Z" style="fill:#00173d"/><path d="M628.59,326.35v-8.63h2.19v8.62a3.07,3.07,0,1,0,6.12,0v-8.62h2.2v8.63a5.26,5.26,0,1,1-10.51,0Z" style="fill:#00173d"/><path d="M641,324.68a7.26,7.26,0,0,1,7.17-7.2A7,7,0,0,1,653,319.6l-1.26,1.71a5.21,5.21,0,0,0-3.61-1.62,5,5,0,0,0,0,10,5.17,5.17,0,0,0,3.6-1.65l1.26,1.75a6.59,6.59,0,0,1-4.79,2.09A7.23,7.23,0,0,1,641,324.68Z" style="fill:#00173d"/><path d="M654.7,317.72h2.18v13.9H654.7Z" style="fill:#00173d"/><path d="M658.89,324.68a7.19,7.19,0,1,1,7.18,7.16A7.21,7.21,0,0,1,658.89,324.68Zm12.17,0a5,5,0,1,0-5,5A5,5,0,0,0,671.06,324.67Z" style="fill:#00173d"/><path d="M686.44,317.68v14.18h-.11l-8.89-9.29v9.06h-2.18V317.48h.11l8.88,9.27v-9.07Z" style="fill:#00173d"/><path d="M691.29,319.87v3.56h5.26v2.17h-5.26v3.84h6.09v2.18h-8.27v-13.9h8.27v2.15Z" style="fill:#00173d"/><path d="M698.85,329.18l1.72-1.24a3.48,3.48,0,0,0,3.11,1.71c1.56,0,2.74-.75,2.74-1.81,0-1.28-1.82-2.06-3.44-2.76s-3.44-1.57-3.44-3.75,2-3.86,4.47-3.86a4.05,4.05,0,0,1,4,2.48l-1.63,1.12a2.57,2.57,0,0,0-2.39-1.46,2.07,2.07,0,0,0-2.29,1.77c0,1.09,1.28,1.48,3,2.2,2.2,1,3.91,2,3.91,4.22,0,2.46-2.14,4.05-5,4.05A5.12,5.12,0,0,1,698.85,329.18Z" style="fill:#00173d"/><path d="M715.66,317.72h4.64a4.55,4.55,0,1,1,0,9.08h-2.46v4.82h-2.18Zm7.35,4.57a2.58,2.58,0,0,0-2.71-2.41h-2.46v4.75h2.46A2.55,2.55,0,0,0,723,322.29Z" style="fill:#00173d"/><path d="M733.09,329.5h-6.58l-1,2.12H723.2l6.53-14.19h.13l6.54,14.19H734Zm-.85-1.87-2.44-5.43-2.45,5.43Z" style="fill:#00173d"/><path d="M745.58,331.62l-3.74-5.38h-1.71v5.38H738v-13.9h4.32a4.59,4.59,0,0,1,4.71,4.46,4.08,4.08,0,0,1-2.75,3.88l4,5.56Zm-3.27-7.19a2.39,2.39,0,0,0,2.41-2.3,2.33,2.33,0,0,0-2.41-2.25h-2.19v4.55Z" style="fill:#00173d"/><path d="M758.47,329.5H751.9l-.95,2.12h-2.36l6.53-14.19h.13l6.54,14.19h-2.37Zm-.84-1.87-2.44-5.43-2.45,5.43Z" style="fill:#00173d"/><path d="M777.21,319.88h-3.73v11.74h-2.19V319.88h-3.72v-2.16h9.64Z" style="fill:#00173d"/><path d="M778.81,326.35v-8.63H781v8.62a3.07,3.07,0,1,0,6.12,0v-8.62h2.2v8.63a5.26,5.26,0,1,1-10.51,0Z" style="fill:#00173d"/><path d="M799.2,319.86v3.71h5.26v2.18H799.2v5.88H797V317.68h8.28v2.18Z" style="fill:#00173d"/><path d="M806.9,326.35v-8.63h2.19v8.62a3.07,3.07,0,1,0,6.12,0v-8.62h2.2v8.63a5.26,5.26,0,1,1-10.51,0Z" style="fill:#00173d"/><path d="M828.65,319.88h-3.72v11.74h-2.19V319.88H819v-2.16h9.64Z" style="fill:#00173d"/><path d="M830.25,326.35v-8.63h2.19v8.62a3.07,3.07,0,1,0,6.12,0v-8.62h2.2v8.63a5.26,5.26,0,1,1-10.51,0Z" style="fill:#00173d"/><path d="M850.93,331.62l-3.74-5.38h-1.7v5.38H843.3v-13.9h4.32a4.59,4.59,0,0,1,4.71,4.46,4.07,4.07,0,0,1-2.75,3.88l4,5.56Zm-3.26-7.19a2.38,2.38,0,0,0,2.4-2.3,2.32,2.32,0,0,0-2.4-2.25h-2.19v4.55Z" style="fill:#00173d"/><path d="M854.42,324.68a7.19,7.19,0,1,1,7.17,7.16A7.2,7.2,0,0,1,854.42,324.68Zm12.16,0a5,5,0,1,0-5,5A5,5,0,0,0,866.58,324.67Z" style="fill:#00173d"/><path d="M887.08,324.68c0,4.27-2.75,6.94-7.17,6.94H876v-13.9h3.95C884.33,317.71,887.08,320.38,887.08,324.68Zm-2.21,0c0-2.95-1.91-4.8-5-4.8h-1.78v9.56h1.8C883,329.44,884.87,327.61,884.87,324.68Z" style="fill:#00173d"/><path d="M889.08,317.72h2.18v13.9h-2.18Z" style="fill:#00173d"/><path d="M907.13,325.12a6.44,6.44,0,0,1-6.61,6.73,7.18,7.18,0,1,1-.08-14.36,7.74,7.74,0,0,1,5.06,2.13l-1.22,1.81a5.79,5.79,0,0,0-3.87-1.75,5,5,0,1,0,.2,10c2.39,0,4.18-1.46,4.18-3.58v0h-4.3v-2h6.58C907.1,324.35,907.13,324.73,907.13,325.12Z" style="fill:#00173d"/><path d="M909.14,317.72h2.18v13.9h-2.18Z" style="fill:#00173d"/><path d="M922.7,319.88H919v11.74h-2.19V319.88h-3.72v-2.16h9.64Z" style="fill:#00173d"/><path d="M931.46,329.5h-6.58l-1,2.12h-2.36l6.53-14.19h.13l6.54,14.19H932.4Zm-.85-1.87-2.44-5.43-2.45,5.43Z" style="fill:#00173d"/><path d="M944.69,329.44v2.18h-8.38v-13.9h2.18v11.72Z" style="fill:#00173d"/></svg>