<?xml version="1.0" encoding="UTF-8" standalone="no"?>
<!-- Created with Inkscape (http://www.inkscape.org/) -->

<svg
   width="412.25391"
   height="234.55937"
   viewBox="0 0 412.25391 234.55937"
   version="1.1"
   id="svg5"
   xml:space="preserve"
   inkscape:version="1.2.1 (9c6d41e410, 2022-07-14)"
   sodipodi:docname="dibujo.svg"
   inkscape:dataloss="true"
   inkscape:export-filename="..\..\..\xampp\htdocs\arduinobascula\ico\svgs\logo.svg"
   inkscape:export-xdpi="96"
   inkscape:export-ydpi="96"
   xmlns:inkscape="http://www.inkscape.org/namespaces/inkscape"
   xmlns:sodipodi="http://sodipodi.sourceforge.net/DTD/sodipodi-0.dtd"
   xmlns:xlink="http://www.w3.org/1999/xlink"
   xmlns="http://www.w3.org/2000/svg"
   xmlns:svg="http://www.w3.org/2000/svg"><sodipodi:namedview
     id="namedview7"
     pagecolor="#ffffff"
     bordercolor="#000000"
     borderopacity="0.25"
     inkscape:showpageshadow="2"
     inkscape:pageopacity="0.0"
     inkscape:pagecheckerboard="0"
     inkscape:deskcolor="#d1d1d1"
     inkscape:document-units="px"
     showgrid="false"
     inkscape:zoom="1.3037281"
     inkscape:cx="210.93355"
     inkscape:cy="111.98654"
     inkscape:window-width="1280"
     inkscape:window-height="971"
     inkscape:window-x="-4"
     inkscape:window-y="-4"
     inkscape:window-maximized="1"
     inkscape:current-layer="layer1"
     showguides="true"><sodipodi:guide
       position="0.8410582,337.01092"
       orientation="1,0"
       id="guide1250"
       inkscape:locked="false" /><sodipodi:guide
       position="113.59463,179.00252"
       orientation="0,-1"
       id="guide1252"
       inkscape:locked="false" /><sodipodi:guide
       position="174.19009,1.0512976"
       orientation="0,-1"
       id="guide1254"
       inkscape:locked="false" /><sodipodi:guide
       position="69.873861,85.424718"
       orientation="0,-1"
       id="guide1256"
       inkscape:locked="false" /><sodipodi:guide
       position="412.73676,301.72749"
       orientation="1,0"
       id="guide1258"
       inkscape:locked="false" /><sodipodi:guide
       position="143.50884,272.58031"
       orientation="1,0"
       id="guide1260"
       inkscape:locked="false" /><sodipodi:guide
       position="177.25821,219.65516"
       orientation="1,0"
       id="guide1262"
       inkscape:locked="false" /><sodipodi:guide
       position="78.311201,234.99579"
       orientation="0,-1"
       id="guide1264"
       inkscape:locked="false" /></sodipodi:namedview><defs
     id="defs2"><clipPath
       clipPathUnits="userSpaceOnUse"
       id="clipPath319"><use
         x="0"
         y="0"
         xlink:href="#g315"
         id="use321" /></clipPath></defs><g
     inkscape:label="Capa 1"
     inkscape:groupmode="layer"
     id="layer1"
     transform="translate(-66.657679,-128.53061)"><g
       id="g387"
       clip-path="none"
       transform="matrix(0.68489346,0,0,0.68489346,-45.713226,37.713178)"
       style="fill:#000000;fill-opacity:1"><g
         inkscape:label="Clip"
         id="g385"
         style="fill:#000000;fill-opacity:1"><g
           id="g13"
           transform="matrix(13.144659,0,0,13.144659,105.35575,179.75777)"
           style="fill:#000000;fill-opacity:1"><path
             d="m 6.4668245,2.4668245 c 0,0.513 0.49,1 1,1 h 9.9999995 c 0.513,0 1,-0.49 1,-1 h 2 c 0,1.657 -1.343,3 -3,3 h -4 l 10e-4,2.062 c 3.946,0.493 6.999,3.8589995 6.999,7.9379995 v 6 c 0,0.552 -0.448,1 -1,1 H 5.4668245 c -0.552,0 -1,-0.448 -1,-1 v -6 c 0,-4.08 3.054,-7.4459995 6.9999995,-7.9379995 v -2.062 H 7.4668245 c -1.66,0 -3,-1.34 -3,-3 z m 5.9999995,7 c -3.2379995,0 -5.9999995,2.7599995 -5.9999995,5.9999995 v 5 H 18.466824 v -5 c 0,-3.238 -2.762,-5.9999995 -6,-5.9999995 z m 0,1.9999995 c 0.742,0 1.436,0.202 2.032,0.554 l -2.74,2.739 c -0.39,0.39 -0.39,1.024 0,1.414 0.361,0.36 0.929,0.388 1.32,0.083 l 0.095,-0.083 2.74,-2.739 c 0.351,0.596 0.553,1.29 0.553,2.032 0,2.21 -1.79,4 -4,4 -2.21,0 -3.9999995,-1.79 -3.9999995,-4 0,-2.21 1.7899995,-4 3.9999995,-4 z"
             id="path11"
             style="fill:#000000;fill-opacity:1" /></g></g></g><g
       id="g317"
       clip-path="url(#clipPath319)"
       transform="matrix(0.76621064,0.54824856,-0.54824856,0.76621064,-20.644259,-137.12129)"><g
         inkscape:label="Clip"
         id="g315"><g
           id="g305"
           transform="matrix(1.9985086,1.1164704,-1.1164704,1.9985086,299.06673,74.711719)"><path
             fill="#b2ebf2"
             d="M 31,20 V 15 C 31,13.795 29.406,10.115 27,8.197 V 6 H 21 V 8.197 C 18.593,10.115 17,13.795 17,15 v 5 c 0,1.656 2,2 2,3 0,1 -2,1.344 -2,3 v 16 c 0,1.656 1.343,3 3,3 h 4 4 c 1.656,0 3,-1.344 3,-3 V 26 c 0,-1.656 -2,-2 -2,-3 0,-1 2,-1.344 2,-3 z"
             id="path278" /><path
             fill="#3f51b5"
             d="M 27,4 C 27,3.447 26.553,3 26,3 h -4 c -0.552,0 -1,0.447 -1,1 v 4 h 6 z"
             id="path280" /><g
             id="g290">
	<path
   fill="#00bcd4"
   d="m 31,36.793 c -0.307,0.171 -1.651,0.79 -1.933,0.896 -0.45,0.17 -0.912,0.338 -1.36,0.497 -0.654,0.232 -1.287,0.251 -2.047,0.251 -1.071,0 -2.058,-0.229 -2.965,-0.479 -0.302,-0.082 -0.606,-0.174 -0.912,-0.266 -0.954,-0.286 -1.94,-0.582 -2.975,-0.675 -0.534,-0.045 -1.125,0.016 -1.809,0.162 v 2.092 c 0.102,-0.041 0.204,-0.082 0.303,-0.122 0.539,-0.127 0.973,-0.175 1.326,-0.14 0.833,0.074 1.681,0.329 2.579,0.599 0.321,0.096 0.641,0.191 0.958,0.279 1.042,0.285 2.187,0.549 3.494,0.549 0.888,0 1.764,-0.028 2.718,-0.366 0.46,-0.165 0.935,-0.337 1.394,-0.51 0.179,-0.067 0.711,-0.303 1.229,-0.543 z"
   id="path284" />
	<path
   fill="#00bcd4"
   d="m 29.067,33.688 c -0.45,0.17 -0.912,0.338 -1.36,0.497 -0.654,0.232 -1.287,0.251 -2.047,0.251 -1.071,0 -2.058,-0.229 -2.965,-0.479 -0.302,-0.082 -0.606,-0.174 -0.912,-0.266 -0.954,-0.286 -1.94,-0.582 -2.975,-0.675 -0.534,-0.045 -1.125,0.017 -1.809,0.163 v 2.091 c 0.102,-0.041 0.204,-0.082 0.303,-0.122 0.539,-0.127 0.973,-0.176 1.326,-0.14 0.833,0.074 1.681,0.329 2.579,0.599 0.321,0.096 0.641,0.191 0.958,0.279 1.042,0.285 2.187,0.549 3.494,0.549 0.888,0 1.764,-0.028 2.718,-0.366 0.46,-0.165 0.935,-0.337 1.394,-0.51 0.179,-0.067 0.711,-0.303 1.229,-0.543 v -2.225 c -0.307,0.173 -1.651,0.792 -1.933,0.897 z"
   id="path286" />
	<path
   fill="#00bcd4"
   d="m 29.067,29.688 c -0.45,0.17 -0.912,0.338 -1.36,0.497 -0.654,0.232 -1.287,0.251 -2.047,0.251 -1.071,0 -2.058,-0.229 -2.965,-0.479 -0.302,-0.082 -0.606,-0.174 -0.912,-0.266 -0.954,-0.286 -1.94,-0.582 -2.975,-0.675 -0.534,-0.045 -1.125,0.016 -1.809,0.162 v 2.092 c 0.102,-0.041 0.204,-0.082 0.303,-0.122 0.539,-0.127 0.973,-0.176 1.326,-0.14 0.833,0.074 1.681,0.329 2.579,0.599 0.321,0.096 0.641,0.191 0.958,0.279 1.042,0.285 2.187,0.549 3.494,0.549 0.888,0 1.764,-0.028 2.718,-0.366 0.46,-0.165 0.935,-0.337 1.394,-0.51 0.179,-0.067 0.711,-0.303 1.229,-0.543 v -2.225 c -0.307,0.173 -1.651,0.792 -1.933,0.897 z"
   id="path288" />
</g></g></g></g><text
       xml:space="preserve"
       style="font-size:37.3163px;text-align:start;letter-spacing:-0.142622px;word-spacing:-0.267418px;text-anchor:start;fill:#000000;fill-opacity:1;stroke:none;stroke-width:0.613278;stroke-dasharray:none;stroke-opacity:1"
       x="239.35991"
       y="230.89711"
       id="text1184"><tspan
         sodipodi:role="line"
         id="tspan1182"
         x="239.35991"
         y="230.89711"
         style="font-style:normal;font-variant:normal;font-weight:normal;font-stretch:normal;font-size:24.9117px;font-family:'Century Gothic';-inkscape-font-specification:'Century Gothic';text-align:start;writing-mode:lr-tb;direction:ltr;text-anchor:start;fill:#000000;fill-opacity:1;stroke:none;stroke-width:0.613278;stroke-dasharray:none"
         dx="0 0 -1.4300001"
         dy="0 6.67277"><tspan
   style="font-size:13.3333px"
   id="tspan1238"> </tspan>Ismac</tspan><tspan
         sodipodi:role="line"
         x="239.35991"
         y="301.65488"
         id="tspan1186"
         style="font-style:normal;font-variant:normal;font-weight:bold;font-stretch:normal;font-size:64.0586px;font-family:'Century Gothic';-inkscape-font-specification:'Century Gothic Bold';text-align:start;writing-mode:lr-tb;direction:ltr;text-anchor:start;fill:#000000;fill-opacity:1;stroke:none;stroke-width:0.613278;stroke-dasharray:none"
         dy="-7.2559228">Bascula</tspan><tspan
         sodipodi:role="line"
         x="239.35991"
         y="357.61572"
         id="tspan1188"
         style="font-style:normal;font-variant:normal;font-weight:normal;font-stretch:normal;font-family:'Century Gothic';-inkscape-font-specification:'Century Gothic';text-align:start;word-spacing:-3.35163px;writing-mode:lr-tb;direction:ltr;text-anchor:start;fill:#000000;fill-opacity:1;stroke:none;stroke-width:0.613278;stroke-dasharray:none"
         dy="-21.393383">All in One</tspan></text></g></svg>
