<svg xmlns="http://www.w3.org/2000/svg" viewBox="0 0 1000 1000"><circle cx="500" cy="499.22" r="462.64" style="fill:#59bd63;stroke:#000;stroke-miterlimit:10;stroke-width:7px"/><path d="M236.47,430l68.27,63.48C439,627.78,642.08,452.24,478.53,288.69L357.62,172c-30.69-30.69-67.6,7.58-38.43,36.75,1.62,1.61,69.81,70.49,69.81,70.49L274.82,163.93c-23.85-23.86-60.4,7-27.83,39.53L352.85,317.38,224.64,185.92c-30-30-69.75,8.77-39.87,38.66L312.68,350.67l-99.07-93.78c-23.37-23.37-57.08,19.35-35.21,41.22L331,447.08s-61.78-60.28-62.36-60.86C242.58,360.11,204.89,398.46,236.47,430Z" style="fill:#fff;stroke:#000;stroke-miterlimit:10;stroke-width:5px"/><path d="M763.53,430l-68.27,63.48C561,627.78,357.92,452.24,521.47,288.69L642.38,172c30.69-30.69,67.6,7.58,38.43,36.75-1.62,1.61-69.81,70.49-69.81,70.49L725.18,163.93c23.85-23.86,60.4,7,27.83,39.53L647.15,317.38,775.36,185.92c30-30,69.75,8.77,39.87,38.66L687.32,350.67l99.07-93.78c23.37-23.37,57.08,19.35,35.21,41.22L669,447.08s61.78-60.28,62.36-60.86C757.42,360.11,795.11,398.46,763.53,430Z" style="fill:#fff;stroke:#000;stroke-miterlimit:10;stroke-width:5px"/><path d="M763.53,587.24l-68.27-63.47C561,389.51,357.92,565,521.47,728.6L642.38,845.31c30.69,30.69,67.6-7.58,38.43-36.75-1.62-1.62-69.81-70.49-69.81-70.49L725.18,853.36c23.85,23.85,60.4-7,27.83-39.54L647.15,699.9,775.36,831.37c30,30,69.75-8.78,39.87-38.66L687.32,666.62l99.07,93.77c23.37,23.38,57.08-19.34,35.21-41.22L669,570.21s61.78,60.28,62.36,60.86C757.42,657.17,795.11,618.83,763.53,587.24Z" style="fill:#fff;stroke:#000;stroke-miterlimit:10;stroke-width:5px"/><path d="M236.47,587.24l68.27-63.47C439,389.51,642.08,565,478.53,728.6L357.62,845.31c-30.69,30.69-67.6-7.58-38.43-36.75,1.62-1.62,69.81-70.49,69.81-70.49L274.82,853.36c-23.85,23.85-60.4-7-27.83-39.54L352.85,699.9,224.64,831.37c-30,30-69.75-8.78-39.87-38.66L312.68,666.62l-99.07,93.77c-23.37,23.38-57.08-19.34-35.21-41.22L331,570.21s-61.78,60.28-62.36,60.86C242.58,657.17,204.89,618.83,236.47,587.24Z" style="fill:#fff;stroke:#000;stroke-miterlimit:10;stroke-width:5px"/><path d="M496.49,513s-65.5-90-179.74-.74c0,0,90,100.4,182.41,3.41,82.33-86.38,184.09-2.38,184.09-2.38s-100.59,82.17-179.31,3.89" style="fill:#39b54a;stroke:#000;stroke-miterlimit:10;stroke-width:5px"/><path d="M500,517.13s92.7-80.38,3.42-201.63c0,0-100.4,95.51-3.42,193.6,86.39,87.38,2.38,195.38,2.38,195.38s-91-107.65-1.21-187.8" style="fill:#39b54a;stroke:#000;stroke-miterlimit:10;stroke-width:5px"/><path d="M500,391.59c1,20.15,1.58,40.31,1.94,60.47.23,10.08.28,20.15.42,30.23l.14,30.24-.13,30.24c-.14,10.07-.19,20.15-.42,30.23-.37,20.16-.91,40.32-1.95,60.47-1-20.15-1.58-40.31-1.95-60.47-.23-10.08-.28-20.16-.42-30.23l-.13-30.24.14-30.24c.14-10.08.19-20.15.42-30.23C498.42,431.9,499,411.74,500,391.59Z"/><path d="M379.06,512.53c20.15-1,40.31-1.58,60.47-1.94,10.08-.23,20.16-.29,30.23-.42L500,510l30.24.13c10.07.14,20.15.19,30.23.42,20.16.36,40.32.91,60.47,1.95-20.15,1-40.31,1.58-60.47,2-10.08.23-20.16.28-30.23.42L500,515l-30.24-.14c-10.07-.14-20.15-.19-30.23-.42C419.37,514.1,399.21,513.56,379.06,512.53Z"/></svg>