<?xml version="1.0" encoding="UTF-8" standalone="no"?>
<!-- Created with Inkscape (http://www.inkscape.org/) -->

<svg
   version="1.1"
   id="svg1413"
   width="196.33862"
   height="196.33862"
   viewBox="0 0 196.33862 196.33862"
   sodipodi:docname="icono.svg"
   inkscape:version="1.2.1 (9c6d41e410, 2022-07-14)"
   xmlns:inkscape="http://www.inkscape.org/namespaces/inkscape"
   xmlns:sodipodi="http://sodipodi.sourceforge.net/DTD/sodipodi-0.dtd"
   xmlns="http://www.w3.org/2000/svg"
   xmlns:svg="http://www.w3.org/2000/svg">
  <defs
     id="defs1417">
    <clipPath
       clipPathUnits="userSpaceOnUse"
       id="clipPath1433">
      <path
         d="M 0,0 H 148 V 148 H 0 Z"
         id="path1431" />
    </clipPath>
    <clipPath
       clipPathUnits="userSpaceOnUse"
       id="clipPath1437">
      <path
         d="m 147.254,73.629 c 0,40.66 -32.965,73.625 -73.625,73.625 C 32.965,147.254 0,114.289 0,73.629 0,54.105 7.762,35.371 21.566,21.566 35.371,7.762 54.105,0 73.629,0 c 19.527,0 38.254,7.762 52.059,21.566 13.812,13.805 21.566,32.539 21.566,52.063 z"
         id="path1435" />
    </clipPath>
    <clipPath
       clipPathUnits="userSpaceOnUse"
       id="clipPath1441">
      <path
         d="M 0,0 H 148 V 148 H 0 Z"
         id="path1439" />
    </clipPath>
    <clipPath
       clipPathUnits="userSpaceOnUse"
       id="clipPath1445">
      <path
         d="M 0,0 H 148 V 148 H 0 Z"
         id="path1443" />
    </clipPath>
    <clipPath
       clipPathUnits="userSpaceOnUse"
       id="clipPath1449">
      <path
         d="M 0,0 H 148 V 148 H 0 Z"
         id="path1447" />
    </clipPath>
    <clipPath
       clipPathUnits="userSpaceOnUse"
       id="clipPath1453">
      <path
         d="M 57.625,115.246 H 89.637 V 145.66 H 57.625 Z"
         id="path1451" />
    </clipPath>
    <clipPath
       clipPathUnits="userSpaceOnUse"
       id="clipPath1457">
      <path
         d="M 0,0 H 148 V 148 H 0 Z"
         id="path1455" />
    </clipPath>
    <clipPath
       clipPathUnits="userSpaceOnUse"
       id="clipPath1461">
      <path
         d="m 58,115 h 31 v 31 H 58 Z"
         id="path1459" />
    </clipPath>
    <clipPath
       clipPathUnits="userSpaceOnUse"
       id="clipPath1465">
      <path
         d="m 88.336,130.547 c 0,8.121 -6.586,14.707 -14.707,14.707 -8.121,0 -14.703,-6.586 -14.703,-14.707 0,-8.121 6.582,-14.707 14.703,-14.707 8.121,0 14.707,6.586 14.707,14.707 z"
         id="path1463" />
    </clipPath>
    <clipPath
       clipPathUnits="userSpaceOnUse"
       id="clipPath1469">
      <path
         d="M 0,0 H 148 V 148 H 0 Z"
         id="path1467" />
    </clipPath>
    <clipPath
       clipPathUnits="userSpaceOnUse"
       id="clipPath1473">
      <path
         d="M 0,0 H 148 V 148 H 0 Z"
         id="path1471" />
    </clipPath>
  </defs>
  <sodipodi:namedview
     id="namedview1415"
     pagecolor="#ffffff"
     bordercolor="#000000"
     borderopacity="0.25"
     inkscape:showpageshadow="2"
     inkscape:pageopacity="0.0"
     inkscape:pagecheckerboard="0"
     inkscape:deskcolor="#d1d1d1"
     showgrid="false"
     inkscape:zoom="3.7231594"
     inkscape:cx="98.035019"
     inkscape:cy="98.169313"
     inkscape:window-width="1280"
     inkscape:window-height="975"
     inkscape:window-x="-4"
     inkscape:window-y="-4"
     inkscape:window-maximized="1"
     inkscape:current-layer="g1421">
    <inkscape:page
       x="0"
       y="0"
       id="page1419"
       width="196.33862"
       height="196.33862" />
  </sodipodi:namedview>
  <g
     id="g1421"
     inkscape:groupmode="layer"
     inkscape:label="Page 1"
     transform="matrix(1.3333333,0,0,1.3333333,0,7.5751321e-6)">
    <g
       id="g1423" />
    <g
       id="g1425">
      <g
         id="g1427">
        <g
           id="g1429" />
        <g
           id="g1599">
          <g
             clip-path="url(#clipPath1433)"
             id="g1597">
            <g
               id="g1475" />
            <g
               id="g1595">
              <g
                 clip-path="url(#clipPath1437)"
                 id="g1593">
                <g
                   id="g1591">
                  <g
                     id="g1477" />
                  <g
                     id="g1589">
                    <g
                       clip-path="url(#clipPath1441)"
                       id="g1587">
                      <g
                         id="g1479" />
                      <g
                         id="g1585">
                        <g
                           id="g1583">
                          <g
                             id="g1481" />
                          <g
                             id="g1581">
                            <g
                               clip-path="url(#clipPath1445)"
                               id="g1579">
                              <g
                                 id="g1521">
                                <path
                                   d="m 147.254,73.629 c 0,40.66 -32.965,73.625 -73.625,73.625 C 32.965,147.254 0,114.289 0,73.629 0,54.105 7.762,35.371 21.566,21.566 35.371,7.762 54.105,0 73.629,0 c 19.527,0 38.254,7.762 52.059,21.566 13.812,13.805 21.566,32.539 21.566,52.063 z"
                                   style="fill:#f9f9f9;fill-opacity:1;fill-rule:nonzero;stroke:none"
                                   id="path1483" />
                                <path
                                   d="m 40.348,72.055 c 0,2.715 2.59,5.289 5.289,5.289 h 52.91 c 2.715,0 5.297,-2.59 5.297,-5.289 h 10.578 c 0,8.765 -7.102,15.875 -15.875,15.875 H 77.383 l 0.004,10.91 c 20.879,2.609 37.484,13.707 37.484,35.289 v 31.75 c 0,2.922 -2.375,5.293 -5.297,5.293 h -74.07 c -2.922,0 -5.293,-2.371 -5.293,-5.293 v -31.75 c 0,-21.582 15.715,-32.688 36.59,-35.289 V 87.93 H 45.637 c -8.785,0 -15.875,-7.09 -15.875,-15.875 z m 31.746,37.039 c -17.133,0 -31.301,7.89 -31.301,25.035 v 26.457 h 63.492 v -26.457 c 0,-17.129 -15.062,-25.035 -32.191,-25.035 z"
                                   style="fill:#4d4d4d;fill-opacity:1;fill-rule:nonzero;stroke:none"
                                   id="path1485" />
                                <path
                                   d="m 63.102,33.02 v -2.645 h -8.149 v 2.645 c -3.512,2.25 -5.551,7.363 -5.426,11.855 0.055,1.895 2.004,3.77 2.582,5.945 0.582,2.168 0,5.317 0,7.711 0.008,1.68 -2.062,3.571 -2.582,5.578 -0.8,3.133 0,9.621 0,9.621 -0.031,1.997 1.825,3.614 4.071,3.614 h 10.859 c 2.246,0 4.07,-1.617 4.07,-3.614 0,0 0.696,-6.296 -0.187,-9.621 -0.469,-1.781 -2.59,-4.953 -2.668,-5.578 -0.051,-0.34 -0.551,-5.191 0,-7.711 0.449,-2.097 2.66,-3.812 2.668,-5.945 0.019,-4.246 -1.238,-9.461 -5.238,-11.855 z"
                                   style="fill:#fbc896;fill-opacity:1;fill-rule:nonzero;stroke:none"
                                   id="path1487" />
                                <path
                                   d="m 63.09,26.344 c 0,-0.676 -0.61,-1.223 -1.352,-1.223 h -5.422 c -0.742,0 -1.351,0.547 -1.351,1.223 v 4.894 h 8.125 z"
                                   style="fill:#f45f00;fill-opacity:1;fill-rule:nonzero;stroke:none"
                                   id="path1489" />
                                <path
                                   d="m 95.766,44.832 v -6.504 c 0,-1.57 -2.071,-6.359 -5.203,-8.855 v -2.856 h -7.805 v 2.856 c -3.133,2.496 -5.207,7.285 -5.207,8.855 v 6.504 c 0,2.156 2.601,2.602 2.601,3.898 0,1.305 -2.601,1.754 -2.601,3.911 v 20.816 c 0,2.148 1.75,3.898 3.91,3.898 h 10.402 c 2.157,0 3.903,-1.75 3.903,-3.898 V 52.641 c 0,-2.157 -2.602,-2.606 -2.602,-3.911 0,-1.296 2.602,-1.742 2.602,-3.898 z"
                                   style="fill:#bee3e8;fill-opacity:1;fill-rule:nonzero;stroke:none"
                                   id="path1491" />
                                <path
                                   d="m 90.563,24.016 c 0,-0.719 -0.583,-1.301 -1.301,-1.301 h -5.203 c -0.719,0 -1.301,0.582 -1.301,1.301 v 5.203 h 7.805 z"
                                   style="fill:#3f51b5;fill-opacity:1;fill-rule:nonzero;stroke:none"
                                   id="path1493" />
                                <path
                                   d="m 95.766,66.676 c -0.403,0.226 -2.145,1.035 -2.516,1.172 -0.578,0.218 -1.187,0.437 -1.77,0.644 -0.851,0.301 -1.675,0.324 -2.664,0.324 -1.394,0 -2.675,-0.293 -3.855,-0.621 -0.395,-0.105 -0.789,-0.222 -1.184,-0.347 -1.242,-0.371 -2.523,-0.758 -3.871,-0.875 -0.699,-0.059 -1.468,0.019 -2.355,0.211 v 2.718 c 0.129,-0.054 0.269,-0.105 0.394,-0.156 0.7,-0.168 1.27,-0.23 1.723,-0.187 1.082,0.101 2.191,0.433 3.359,0.781 0.414,0.125 0.832,0.254 1.243,0.363 1.359,0.371 2.847,0.715 4.546,0.715 1.157,0 2.297,-0.031 3.539,-0.477 0.594,-0.211 1.215,-0.437 1.813,-0.664 0.234,-0.086 0.926,-0.394 1.598,-0.703 z"
                                   style="fill:#00bcd4;fill-opacity:1;fill-rule:nonzero;stroke:none"
                                   id="path1495" />
                                <path
                                   d="m 93.25,62.637 c -0.578,0.226 -1.187,0.445 -1.77,0.652 -0.851,0.301 -1.675,0.324 -2.664,0.324 -1.394,0 -2.675,-0.3 -3.855,-0.625 -0.395,-0.105 -0.789,-0.226 -1.184,-0.343 -1.242,-0.375 -2.523,-0.758 -3.871,-0.883 -0.699,-0.055 -1.468,0.027 -2.355,0.215 v 2.718 c 0.129,-0.05 0.269,-0.105 0.394,-0.156 0.7,-0.164 1.27,-0.23 1.723,-0.18 1.082,0.094 2.191,0.426 3.359,0.782 0.414,0.121 0.832,0.242 1.243,0.363 1.359,0.367 2.847,0.711 4.546,0.711 1.157,0 2.297,-0.039 3.539,-0.477 0.594,-0.218 1.215,-0.437 1.813,-0.66 0.234,-0.09 0.926,-0.394 1.598,-0.707 v -2.894 c -0.403,0.222 -2.145,1.023 -2.516,1.16 z"
                                   style="fill:#3f51b5;fill-opacity:1;fill-rule:nonzero;stroke:none"
                                   id="path1497" />
                                <path
                                   d="m 93.25,57.438 c -0.578,0.218 -1.187,0.437 -1.77,0.64 -0.851,0.309 -1.675,0.332 -2.664,0.332 -1.394,0 -2.675,-0.297 -3.855,-0.625 -0.395,-0.105 -0.789,-0.222 -1.184,-0.344 -1.242,-0.375 -2.523,-0.753 -3.871,-0.878 -0.699,-0.059 -1.468,0.015 -2.355,0.21 v 2.719 c 0.129,-0.047 0.269,-0.105 0.394,-0.156 0.7,-0.168 1.27,-0.231 1.723,-0.18 1.082,0.094 2.191,0.426 3.359,0.774 0.414,0.125 0.832,0.25 1.243,0.363 1.359,0.375 2.847,0.719 4.546,0.719 1.157,0 2.297,-0.035 3.539,-0.481 0.594,-0.211 1.215,-0.437 1.813,-0.664 0.234,-0.086 0.926,-0.394 1.598,-0.707 v -2.894 c -0.403,0.226 -2.145,1.031 -2.516,1.172 z"
                                   style="fill:#3f51b5;fill-opacity:1;fill-rule:nonzero;stroke:none"
                                   id="path1499" />
                                <path
                                   d="m 76.707,36.711 v -2.43 h -6.621 v 2.43 c -5.266,4.461 -4.414,10.144 -4.414,16.344 0.305,4.023 0,20.976 0,20.976 0,1.824 1.48,3.305 3.308,3.305 h 8.833 c 1.828,0 3.308,-1.481 3.308,-3.305 V 47.969 c 0,-5.074 -1.758,-9.141 -4.414,-11.258 z"
                                   style="fill:#cccccc;fill-opacity:1;fill-rule:nonzero;stroke:none"
                                   id="path1501" />
                                <path
                                   d="m 77.789,30.074 c 0,-0.812 -0.656,-1.461 -1.465,-1.461 h -5.859 c -0.805,0 -1.461,0.649 -1.461,1.461 v 5.86 h 8.785 z"
                                   style="fill:#b53f49;fill-opacity:1;fill-rule:nonzero;stroke:none"
                                   id="path1503" />
                                <g
                                   id="g1515">
                                <g
                                   id="g1505" />
                                <g
                                   id="g1513">
                                <g
                                   clip-path="url(#clipPath1449)"
                                   opacity="0.92"
                                   id="g1511">
                                <g
                                   id="g1509">
                                <path
                                   d="M 65.652,51.102 H 81.148 V 65.321 H 65.652 Z"
                                   style="fill:#800000;fill-opacity:1;fill-rule:nonzero;stroke:none"
                                   id="path1507" />
                                </g>
                                </g>
                                </g>
                                </g>
                                <path
                                   d="m 91.711,72.348 2.547,-0.024 -0.07,-6.945 -2.543,0.023 C 85.129,62.645 77.688,61.289 74.473,60.945 71.266,60.598 52.57,61.156 52.57,61.156 c -1.582,0.012 -3.398,-0.105 -3.386,1.965 l 0.004,1.539 c 0.007,1.692 2.382,1.578 2.382,1.578 0,0 -2.336,0.157 -2.363,1.817 l 0.012,2.648 c 0.008,1.516 2.41,1.637 2.41,1.637 0,0 -2.402,-0.016 -2.395,1.578 l 0.004,1.602 c 0.016,1.726 2.032,1.851 3.414,1.832 0,0 18.907,0.187 21.903,-0.106 3,-0.289 10.843,-2.305 17.156,-4.898 z"
                                   style="fill:#8bb772;fill-opacity:1;fill-rule:nonzero;stroke:none"
                                   id="path1517" />
                                <path
                                   d="m 98.676,73.41 c 0.851,-0.012 1.535,-0.699 1.523,-1.547 l -0.058,-6.14 c -0.004,-0.848 -0.7,-1.528 -1.551,-1.524 l -6.141,0.063 0.094,9.207 z"
                                   style="fill:#205900;fill-opacity:1;fill-rule:nonzero;stroke:none"
                                   id="path1519" />
                              </g>
                              <g
                                 id="g1577">
                                <g
                                   clip-path="url(#clipPath1453)"
                                   id="g1575">
                                <g
                                   id="g1573">
                                <g
                                   id="g1571">
                                <g
                                   clip-path="url(#clipPath1457)"
                                   id="g1569">
                                <g
                                   id="g1523" />
                                <g
                                   id="g1567">
                                <g
                                   clip-path="url(#clipPath1461)"
                                   id="g1565">
                                <g
                                   clip-path="url(#clipPath1465)"
                                   id="g1563">
                                <g
                                   id="g1561">
                                <g
                                   id="g1559">
                                <g
                                   clip-path="url(#clipPath1469)"
                                   id="g1557">
                                <g
                                   id="g1525" />
                                <g
                                   id="g1555">
                                <g
                                   id="g1553">
                                <g
                                   id="g1551">
                                <g
                                   clip-path="url(#clipPath1473)"
                                   id="g1549">
                                <g
                                   id="g1547">
                                <path
                                   d="m 88.336,130.547 c 0,8.121 -6.586,14.707 -14.707,14.707 -8.121,0 -14.703,-6.586 -14.703,-14.707 0,-8.121 6.582,-14.707 14.703,-14.707 8.121,0 14.707,6.586 14.707,14.707 z"
                                   style="fill:#40b52a;fill-opacity:1;fill-rule:nonzero;stroke:none"
                                   id="path1527" />
                                <path
                                   d="m 68.797,139.277 c 0,-0.007 0,0 0.004,-0.007 h 0.215 c 0,0 0.007,0 0.011,0 l 3.641,-0.02 -0.031,-4.449 -3.532,0.023 H 68.66 l -1.062,0.004 -2.571,0.02 1.946,3.32 c 0.39,0.684 1.093,1.07 1.824,1.109 z"
                                   style="fill:#ffffff;fill-opacity:1;fill-rule:nonzero;stroke:none"
                                   id="path1529" />
                                <path
                                   d="m 64.363,131.516 c -0.187,0.324 -0.293,0.707 -0.293,1.113 0.004,0.398 0.121,0.781 0.305,1.109 l 1.945,3.325 0.653,1.105 c -0.395,-0.676 -0.395,-1.469 -0.071,-2.125 l 0.118,-0.207 3.07,-5.391 -3.863,-2.199 z"
                                   style="fill:#ffffff;fill-opacity:1;fill-rule:nonzero;stroke:none"
                                   id="path1531" />
                                <path
                                   d="m 64.375,128.258 6.648,3.785 -2.23,-3.809 z"
                                   style="fill:#ffffff;fill-opacity:1;fill-rule:nonzero;stroke:none"
                                   id="path1533" />
                                <path
                                   d="m 69.41,122.656 -0.105,0.188 c 0,0 0,0.008 -0.008,0.011 l -1.801,3.161 3.863,2.199 1.754,-3.07 0.219,-0.387 0.531,-0.926 1.27,-2.23 -3.856,0.023 c -0.785,0.004 -1.472,0.414 -1.867,1.031 z"
                                   style="fill:#ffffff;fill-opacity:1;fill-rule:nonzero;stroke:none"
                                   id="path1535" />
                                <path
                                   d="m 78.344,122.695 c -0.188,-0.328 -0.461,-0.609 -0.813,-0.808 -0.355,-0.199 -0.738,-0.293 -1.117,-0.293 l -3.851,0.023 -1.286,0.008 c 0.786,-0.008 1.473,0.395 1.879,1 l 0.117,0.211 3.133,5.355 3.84,-2.25 z"
                                   style="fill:#ffffff;fill-opacity:1;fill-rule:nonzero;stroke:none"
                                   id="path1537" />
                                <path
                                   d="m 81.164,124.332 -6.609,3.863 4.422,-0.023 z"
                                   style="fill:#ffffff;fill-opacity:1;fill-rule:nonzero;stroke:none"
                                   id="path1539" />
                                <path
                                   d="m 77.707,130.402 1.781,3.051 0.227,0.391 0.539,0.918 1.293,2.211 1.906,-3.344 c 0.387,-0.68 0.383,-1.481 0.043,-2.133 0,0 0,0 0,-0.004 l -0.113,-0.183 c 0,-0.004 0,-0.004 -0.004,-0.012 l -1.832,-3.141 z"
                                   style="fill:#ffffff;fill-opacity:1;fill-rule:nonzero;stroke:none"
                                   id="path1541" />
                                <path
                                   d="m 78.996,139.215 c 0.375,0 0.754,-0.102 1.106,-0.301 0.351,-0.207 0.625,-0.492 0.812,-0.82 l 1.906,-3.352 0.633,-1.113 c -0.387,0.676 -1.074,1.074 -1.801,1.121 l -0.246,0.008 -6.199,0.027 0.023,4.453 z"
                                   style="fill:#ffffff;fill-opacity:1;fill-rule:nonzero;stroke:none"
                                   id="path1543" />
                                <path
                                   d="m 76.168,140.832 -0.043,-7.652 -2.187,3.84 z"
                                   style="fill:#ffffff;fill-opacity:1;fill-rule:nonzero;stroke:none"
                                   id="path1545" />
                                </g>
                                </g>
                                </g>
                                </g>
                                </g>
                                </g>
                                </g>
                                </g>
                                </g>
                                </g>
                                </g>
                                </g>
                                </g>
                                </g>
                                </g>
                              </g>
                            </g>
                          </g>
                        </g>
                      </g>
                    </g>
                  </g>
                </g>
              </g>
            </g>
          </g>
        </g>
      </g>
    </g>
  </g>
</svg>
