<?xml version="1.0" encoding="UTF-8" standalone="no"?>
<!-- Created with Inkscape (http://www.inkscape.org/) -->

<svg
   width="81.097794mm"
   height="81.443588mm"
   viewBox="0 0 81.097792 81.443588"
   version="1.1"
   id="svg1031"
   xml:space="preserve"
   inkscape:version="1.2.1 (9c6d41e410, 2022-07-14)"
   sodipodi:docname="logo_min.svg"
   xmlns:inkscape="http://www.inkscape.org/namespaces/inkscape"
   xmlns:sodipodi="http://sodipodi.sourceforge.net/DTD/sodipodi-0.dtd"
   xmlns="http://www.w3.org/2000/svg"
   xmlns:svg="http://www.w3.org/2000/svg"><sodipodi:namedview
     id="namedview1033"
     pagecolor="#ffffff"
     bordercolor="#000000"
     borderopacity="0.25"
     inkscape:showpageshadow="2"
     inkscape:pageopacity="0.0"
     inkscape:pagecheckerboard="0"
     inkscape:deskcolor="#d1d1d1"
     inkscape:document-units="mm"
     showgrid="false"
     inkscape:zoom="1.302427"
     inkscape:cx="134.36453"
     inkscape:cy="144.7298"
     inkscape:window-width="1280"
     inkscape:window-height="975"
     inkscape:window-x="-4"
     inkscape:window-y="-4"
     inkscape:window-maximized="1"
     inkscape:current-layer="layer2" /><defs
     id="defs1028" /><g
     inkscape:groupmode="layer"
     id="layer2"
     inkscape:label="Capa 2"
     transform="translate(-12.960613,-13.066936)"><path
       style="opacity:0.99;fill:#f2f2f2;stroke:none;stroke-width:0.0968251;stroke-opacity:1"
       id="path1161"
       sodipodi:type="arc"
       sodipodi:cx="53.554508"
       sodipodi:cy="53.673904"
       sodipodi:rx="37.060135"
       sodipodi:ry="37.060135"
       sodipodi:start="0.81019303"
       sodipodi:end="0.75775973"
       sodipodi:open="true"
       sodipodi:arc-type="arc"
       d="m 79.102231,80.521017 a 37.060135,37.060135 0 0 1 -52.05765,-0.949674 37.060135,37.060135 0 0 1 0.267223,-52.065626 37.060135,37.060135 0 0 1 52.064656,-0.415274 37.060135,37.060135 0 0 1 1.097699,52.05474" /></g><g
     inkscape:label="Capa 1"
     inkscape:groupmode="layer"
     id="layer1"
     transform="translate(-58.812081,-100.84108)"><path
       d="m 136.70948,113.76036 -0.42191,-4.43697 -4.22575,1.40854 a 48.737027,48.737027 0 0 1 -22.57258,2.25382 41.799749,41.799749 0 0 0 -23.523409,3.16924 25.460167,25.460167 0 0 0 -15.107038,19.05116 31.693155,31.693155 0 0 0 1.373401,16.12829 58.456261,58.456261 0 0 1 4.155354,-7.74731 34.686396,34.686396 0 0 1 14.332288,-12.0786 39.299511,39.299511 0 0 1 17.818584,-3.52142 v 0 a 42.539256,42.539256 0 0 0 -16.409912,6.16255 33.383455,33.383455 0 0 0 -6.549979,5.38781 40.074232,40.074232 0 0 0 -4.894825,6.72606 57.716754,57.716754 0 0 0 -5.528746,15.98746 93.037008,93.037008 0 0 0 -1.831113,16.97341 h 7.042959 a 108.07366,108.07366 0 0 1 2.077612,-15.2127 32.573518,32.573518 0 0 0 15.917048,3.90885 38.736076,38.736076 0 0 0 15.071776,-3.06371 c 26.79833,-11.4448 23.27692,-49.51172 23.27692,-51.09648 z"
       id="path1035"
       style="fill:#008000;stroke-width:3.52146" /><text
       xml:space="preserve"
       style="font-style:normal;font-variant:normal;font-weight:normal;font-stretch:normal;font-size:30.4672px;font-family:'Tw Cen MT';-inkscape-font-specification:'Tw Cen MT';text-align:center;text-anchor:middle;opacity:0.99;fill:#f2f2f2;stroke:none;stroke-width:0.19042;stroke-opacity:1"
       x="98.522331"
       y="162.73373"
       id="text1217"><tspan
         sodipodi:role="line"
         id="tspan1215"
         style="font-style:normal;font-variant:normal;font-weight:normal;font-stretch:normal;font-family:'Tw Cen MT';-inkscape-font-specification:'Tw Cen MT';stroke-width:0.19042"
         x="98.522331"
         y="162.73373">B</tspan></text><g
       id="g4711"
       transform="matrix(0.01649865,0,0,0.01649865,105.74716,155.773)"
       style="fill:#ffffff"><g
         id="g4649"
         style="fill:#ffffff">
	<path
   style="fill:#ffffff"
   d="m 117.043,26.859 c -0.017,0.043 -0.043,0.064 -0.051,0.102 l -2.3,3.972 c -0.051,0.081 -0.09,0.171 -0.124,0.256 l -39.466,68.314 83.541,48.23 38.34,-66.402 4.8,-8.311 11.558,-20.006 27.831,-48.235 h -83.533 c -17.014,-0.009 -31.99,8.789 -40.596,22.08 z"
   id="path4631" />
	<path
   style="fill:#ffffff"
   d="M 310.793,28.885 C 306.71,21.79 300.745,15.628 293.142,11.234 285.535,6.839 277.227,4.77 269.018,4.77 h -83.524 -27.849 c 16.981,0 31.91,8.742 40.542,21.973 l 2.607,4.548 67.251,116.433 83.52,-48.226 z"
   id="path4633" />
	<polygon
   style="fill:#ffffff"
   points="227.925,147.729 323.725,147.729 371.627,64.777 "
   id="polygon4635" />
	<path
   style="fill:#ffffff"
   d="m 421.35,220.378 c -0.017,-0.03 -0.026,-0.055 -0.068,-0.09 l -2.291,-3.981 c -0.034,-0.09 -0.107,-0.171 -0.141,-0.239 l -39.441,-68.331 -83.541,48.23 38.349,66.402 4.8,8.32 11.533,20.011 27.857,48.222 41.775,-72.341 c 8.511,-14.737 8.375,-32.102 1.168,-46.203 z"
   id="path4637" />
	<path
   style="fill:#ffffff"
   d="m 322.718,387.166 c 8.192,0 16.508,-2.065 24.107,-6.464 7.616,-4.395 13.559,-10.556 17.66,-17.651 l 41.766,-72.346 13.935,-24.124 c -8.499,14.699 -23.518,23.266 -39.292,24.111 h -5.265 l -134.451,0.013 v 96.457 h 81.54 z"
   id="path4639" />
	<polygon
   style="fill:#ffffff"
   points="261.218,255.983 213.342,338.935 261.218,421.897 "
   id="polygon4641" />
	<path
   style="fill:#ffffff"
   d="m 185.476,290.697 h -76.693 -9.6 l -23.1,-0.004 -55.684,0.004 41.758,72.346 c 8.516,14.733 23.607,23.305 39.424,24.111 0.043,-0.004 0.068,0 0.115,0 h 4.591 c 0.09,0.013 0.192,0 0.29,-0.013 l 78.891,0.013 v -96.457 z"
   id="path4643" />
	<path
   style="fill:#ffffff"
   d="M 6.451,218.347 C 2.377,225.438 0,233.673 0,242.462 c 0,8.785 2.377,17.011 6.451,24.111 l 41.775,72.337 13.935,24.128 c -8.482,-14.699 -8.384,-32 -1.242,-46.093 l 2.624,-4.548 67.226,-116.442 -83.541,-48.235 z"
   id="path4645" />
	<polygon
   style="fill:#ffffff"
   points="150.81,230.682 102.925,147.729 7.134,147.716 "
   id="polygon4647" />
</g><g
         id="g4651"
         style="fill:#ffffff">
</g><g
         id="g4653"
         style="fill:#ffffff">
</g><g
         id="g4655"
         style="fill:#ffffff">
</g><g
         id="g4657"
         style="fill:#ffffff">
</g><g
         id="g4659"
         style="fill:#ffffff">
</g><g
         id="g4661"
         style="fill:#ffffff">
</g><g
         id="g4663"
         style="fill:#ffffff">
</g><g
         id="g4665"
         style="fill:#ffffff">
</g><g
         id="g4667"
         style="fill:#ffffff">
</g><g
         id="g4669"
         style="fill:#ffffff">
</g><g
         id="g4671"
         style="fill:#ffffff">
</g><g
         id="g4673"
         style="fill:#ffffff">
</g><g
         id="g4675"
         style="fill:#ffffff">
</g><g
         id="g4677"
         style="fill:#ffffff">
</g><g
         id="g4679"
         style="fill:#ffffff">
</g></g></g></svg>
