<?xml version="1.0" encoding="UTF-8" standalone="no"?>
<!-- Created with Inkscape (http://www.inkscape.org/) -->

<svg
   width="480.20538"
   height="196.33862"
   viewBox="0 0 480.20538 196.33862"
   version="1.1"
   id="SVGRoot"
   xml:space="preserve"
   xmlns="http://www.w3.org/2000/svg"
   xmlns:svg="http://www.w3.org/2000/svg"><defs
     id="defs14407"><clipPath
       clipPathUnits="userSpaceOnUse"
       id="clipPath14558"><path
         d="M 0,0 H 226 V 92 H 0 Z"
         id="path14556" /></clipPath><clipPath
       clipPathUnits="userSpaceOnUse"
       id="clipPath14602"><path
         d="M 0,0 H 92 V 92 H 0 Z"
         id="path14600" /></clipPath><clipPath
       clipPathUnits="userSpaceOnUse"
       id="clipPath14608"><path
         d="M 91.996,46 C 91.996,71.402 71.402,91.996 46,91.996 20.594,91.996 0,71.402 0,46 0,33.801 4.848,22.098 13.473,13.473 22.098,4.848 33.801,0 46,0 58.199,0 69.898,4.848 78.523,13.473 87.152,22.098 91.996,33.801 91.996,46 Z"
         id="path14606" /></clipPath><clipPath
       clipPathUnits="userSpaceOnUse"
       id="clipPath14616"><path
         d="M 0,0 H 226 V 92 H 0 Z"
         id="path14614" /></clipPath><clipPath
       clipPathUnits="userSpaceOnUse"
       id="clipPath14620"><path
         d="M 0,0 H 226 V 92 H 0 Z"
         id="path14618" /></clipPath><clipPath
       clipPathUnits="userSpaceOnUse"
       id="clipPath14624"><path
         d="M 36,72 H 56 V 91 H 36 Z"
         id="path14622" /></clipPath><clipPath
       clipPathUnits="userSpaceOnUse"
       id="clipPath14628"><path
         d="m 55.188,81.559 c 0,5.074 -4.114,9.187 -9.188,9.187 -5.074,0 -9.187,-4.113 -9.187,-9.187 0,-5.075 4.113,-9.188 9.187,-9.188 5.074,0 9.188,4.113 9.188,9.188 z"
         id="path14626" /></clipPath><clipPath
       clipPathUnits="userSpaceOnUse"
       id="clipPath14632"><path
         d="M 0,0 H 226 V 92 H 0 Z"
         id="path14630" /></clipPath></defs><g
     id="layer1"
     transform="translate(-14.570831,-155.95192)"><g
       id="g14548"
       transform="matrix(2.1342082,0,0,2.1342082,14.570831,155.95192)"><g
         id="g14550"><g
           id="g14552"><g
             id="g14554" /><g
             id="g14580"><g
               clip-path="url(#clipPath14558)"
               opacity="0.92"
               id="g14578"><g
                 id="g14576"><path
                   d="m 96.637,72.641 c -1.055,0 -1.918,-0.215 -2.59,-0.645 -0.656,-0.433 -1.141,-1.019 -1.449,-1.762 -0.313,-0.726 -0.469,-1.535 -0.469,-2.433 0,-1.383 0.34,-2.813 1.012,-4.297 0.5,-1.07 1.164,-2.055 1.992,-2.953 0.828,-0.914 1.762,-1.641 2.797,-2.172 1.035,-0.555 2.125,-0.832 3.261,-0.832 0.879,0 1.579,0.121 2.098,0.363 0.516,0.227 0.887,0.528 1.113,0.906 0.243,0.364 0.364,0.75 0.364,1.164 0,0.571 -0.172,1.106 -0.52,1.606 -0.344,0.5 -0.766,0.82 -1.269,0.961 -0.016,0.016 -0.043,0.023 -0.075,0.023 -0.019,0.02 -0.054,0.028 -0.105,0.028 0.035,0 0.07,-0.008 0.105,-0.028 0.016,0 0.024,0 0.024,0 l 0.051,-0.023 c 0.242,-0.106 0.476,-0.371 0.699,-0.805 0.242,-0.429 0.363,-0.898 0.363,-1.398 0,-0.551 -0.207,-1.051 -0.621,-1.5 -0.414,-0.449 -1.184,-0.676 -2.305,-0.676 -1,0 -1.976,0.27 -2.925,0.805 -0.93,0.535 -1.778,1.242 -2.536,2.121 -0.742,0.883 -1.347,1.832 -1.812,2.847 -0.586,1.332 -0.879,2.625 -0.879,3.887 0,1.137 0.293,2.106 0.879,2.899 0.586,0.793 1.519,1.191 2.797,1.191 0.742,0 1.508,-0.207 2.304,-0.621 0.809,-0.414 1.622,-0.949 2.434,-1.606 0.828,-0.675 1.629,-1.406 2.406,-2.203 0.793,-0.793 1.535,-1.558 2.227,-2.3 -0.656,0.066 -1.285,0.152 -1.891,0.257 -0.586,0.086 -1.156,0.2 -1.707,0.336 h -0.105 c -0.207,0 -0.309,-0.105 -0.309,-0.312 0,-0.086 0.031,-0.172 0.102,-0.258 0.07,-0.102 0.164,-0.164 0.285,-0.18 1.262,-0.207 2.633,-0.379 4.117,-0.519 2.828,-3.348 5.09,-5.973 6.781,-7.871 1.692,-1.899 3.039,-3.063 4.039,-3.493 0.399,-0.171 0.778,-0.261 1.141,-0.261 0.379,0 0.566,0.121 0.566,0.363 0,0.242 -0.23,0.598 -0.695,1.063 -0.625,0.636 -1.262,1.492 -1.918,2.562 -0.637,1.07 -1.242,2.246 -1.812,3.52 -0.551,1.261 -1.008,2.539 -1.372,3.832 0.243,0 0.442,0 0.594,0 0.156,-0.016 0.293,-0.016 0.414,0 0.176,0.019 0.305,0.07 0.391,0.156 0.086,0.086 0.129,0.172 0.129,0.258 0,0.207 -0.129,0.312 -0.387,0.312 -0.176,0 -0.371,0 -0.598,0 -0.207,-0.019 -0.429,-0.027 -0.671,-0.027 -0.293,1.176 -0.442,2.254 -0.442,3.238 0,0.242 0.008,0.473 0.028,0.699 0.015,0.223 0.042,0.438 0.078,0.645 0.086,0.414 0.187,0.777 0.308,1.09 0.137,0.308 0.321,0.465 0.543,0.465 0.262,0 0.59,-0.25 0.985,-0.75 0.14,-0.157 0.269,-0.235 0.39,-0.235 0.086,0 0.153,0.035 0.207,0.106 0.051,0.086 0.043,0.195 -0.027,0.336 -0.379,0.777 -0.891,1.164 -1.527,1.164 -0.344,0 -0.684,-0.157 -1.012,-0.465 -0.309,-0.313 -0.531,-0.813 -0.672,-1.504 -0.102,-0.5 -0.156,-1.043 -0.156,-1.629 0,-0.484 0.027,-0.984 0.078,-1.504 0.07,-0.535 0.164,-1.086 0.285,-1.656 -0.707,0 -1.508,0.008 -2.406,0.027 -0.883,0 -1.77,0.043 -2.668,0.129 -0.016,0.035 -0.051,0.078 -0.102,0.129 -0.054,0.035 -0.097,0.07 -0.129,0.105 -0.691,0.778 -1.461,1.594 -2.304,2.457 -0.848,0.848 -1.727,1.641 -2.641,2.383 -0.898,0.742 -1.805,1.336 -2.719,1.785 -0.898,0.469 -1.754,0.7 -2.562,0.7 z m 11.054,-8.258 c 0.844,-0.051 1.672,-0.086 2.485,-0.102 0.812,-0.035 1.535,-0.062 2.176,-0.078 0.308,-1.262 0.73,-2.504 1.265,-3.73 0.535,-1.243 1.113,-2.391 1.735,-3.442 0.621,-1.054 1.211,-1.918 1.761,-2.59 0.051,-0.07 0.129,-0.171 0.235,-0.308 0.101,-0.156 0.195,-0.293 0.285,-0.414 0.101,-0.141 0.137,-0.199 0.101,-0.184 -0.929,0.399 -2.199,1.535 -3.804,3.418 -1.59,1.863 -3.668,4.34 -6.239,7.43 z"
                   style="fill:#004a00;fill-opacity:0.693694;fill-rule:nonzero;stroke:none"
                   id="path14560" /><path
                   d="m 118.305,70 c -0.692,0 -1.164,-0.207 -1.426,-0.621 -0.258,-0.414 -0.387,-0.914 -0.387,-1.5 0,-0.656 0.102,-1.406 0.313,-2.254 0.222,-0.844 0.508,-1.727 0.851,-2.641 0.364,-0.914 0.77,-1.812 1.219,-2.691 0.449,-0.879 0.906,-1.684 1.371,-2.406 0.465,-0.727 0.906,-1.321 1.32,-1.789 0.364,-0.395 0.707,-0.7 1.036,-0.907 0.343,-0.222 0.707,-0.402 1.086,-0.543 0.261,-0.101 0.519,-0.156 0.777,-0.156 0.348,0 0.64,0.086 0.883,0.262 0.257,0.172 0.386,0.457 0.386,0.851 0,0.383 -0.136,0.821 -0.414,1.321 -0.277,0.484 -0.621,0.976 -1.035,1.476 -0.414,0.5 -0.836,0.969 -1.269,1.399 -0.43,0.429 -0.813,0.785 -1.137,1.062 -0.727,0.602 -1.426,1.172 -2.098,1.707 -0.676,0.52 -1.234,1.043 -1.683,1.578 -0.243,0.676 -0.434,1.332 -0.571,1.969 -0.136,0.621 -0.207,1.184 -0.207,1.684 0,0.449 0.078,0.82 0.235,1.113 0.172,0.293 0.465,0.441 0.879,0.441 0.414,0 0.812,-0.132 1.191,-0.39 0.379,-0.277 0.742,-0.621 1.086,-1.035 0.363,-0.414 0.691,-0.828 0.984,-1.242 0.207,-0.293 0.407,-0.579 0.598,-0.856 0.207,-0.293 0.371,-0.527 0.488,-0.699 0.071,-0.121 0.184,-0.18 0.34,-0.18 0.188,0 0.285,0.094 0.285,0.285 0,0.121 -0.054,0.274 -0.156,0.465 -0.207,0.344 -0.477,0.762 -0.805,1.242 -0.328,0.485 -0.699,0.957 -1.113,1.426 -0.414,0.465 -0.879,0.852 -1.398,1.164 -0.5,0.313 -1.043,0.465 -1.629,0.465 z m 3.883,-13.383 c -0.379,0.414 -0.786,0.949 -1.215,1.606 -0.414,0.656 -0.832,1.379 -1.246,2.172 -0.414,0.796 -0.793,1.597 -1.137,2.41 0.551,-0.5 1.051,-0.926 1.5,-1.27 0.449,-0.363 0.898,-0.742 1.348,-1.14 0.394,-0.344 0.82,-0.766 1.269,-1.266 0.465,-0.52 0.895,-1.055 1.293,-1.606 0.398,-0.554 0.672,-1.062 0.828,-1.527 0.051,-0.191 0.078,-0.336 0.078,-0.441 0,-0.278 -0.136,-0.414 -0.414,-0.414 -0.07,0 -0.148,0.007 -0.234,0.027 -0.067,0.016 -0.145,0.043 -0.231,0.078 -0.312,0.121 -0.621,0.293 -0.933,0.516 -0.293,0.226 -0.594,0.508 -0.906,0.855 z"
                   style="fill:#004a00;fill-opacity:0.693694;fill-rule:nonzero;stroke:none"
                   id="path14562" /><path
                   d="m 124.207,70 c -0.691,0 -1.164,-0.207 -1.426,-0.621 -0.258,-0.414 -0.386,-0.914 -0.386,-1.5 0,-0.656 0.105,-1.406 0.312,-2.254 0.223,-0.844 0.508,-1.727 0.852,-2.641 0.363,-0.914 0.769,-1.812 1.218,-2.691 0.45,-0.879 0.907,-1.684 1.371,-2.406 0.465,-0.727 0.907,-1.321 1.321,-1.789 0.363,-0.395 0.707,-0.7 1.035,-0.907 0.348,-0.222 0.707,-0.402 1.09,-0.543 0.258,-0.101 0.515,-0.156 0.773,-0.156 0.348,0 0.641,0.086 0.883,0.262 0.258,0.172 0.387,0.457 0.387,0.851 0,0.383 -0.137,0.821 -0.414,1.321 -0.278,0.484 -0.621,0.976 -1.035,1.476 -0.415,0.5 -0.836,0.969 -1.27,1.399 -0.43,0.429 -0.809,0.785 -1.137,1.062 -0.726,0.602 -1.426,1.172 -2.097,1.707 -0.676,0.52 -1.235,1.043 -1.684,1.578 -0.242,0.676 -0.43,1.332 -0.57,1.969 -0.137,0.621 -0.207,1.184 -0.207,1.684 0,0.449 0.078,0.82 0.234,1.113 0.172,0.293 0.465,0.441 0.879,0.441 0.414,0 0.812,-0.132 1.191,-0.39 0.379,-0.277 0.743,-0.621 1.086,-1.035 0.364,-0.414 0.692,-0.828 0.985,-1.242 0.207,-0.293 0.406,-0.579 0.597,-0.856 0.207,-0.293 0.371,-0.527 0.493,-0.699 0.066,-0.121 0.179,-0.18 0.335,-0.18 0.188,0 0.286,0.094 0.286,0.285 0,0.121 -0.055,0.274 -0.157,0.465 -0.207,0.344 -0.476,0.762 -0.804,1.242 -0.328,0.485 -0.7,0.957 -1.114,1.426 -0.414,0.465 -0.879,0.852 -1.394,1.164 -0.504,0.313 -1.047,0.465 -1.633,0.465 z m 3.883,-13.383 c -0.379,0.414 -0.785,0.949 -1.215,1.606 -0.414,0.656 -0.828,1.379 -1.246,2.172 -0.414,0.796 -0.793,1.597 -1.137,2.41 0.551,-0.5 1.051,-0.926 1.5,-1.27 0.449,-0.363 0.899,-0.742 1.348,-1.14 0.398,-0.344 0.82,-0.766 1.269,-1.266 0.465,-0.52 0.895,-1.055 1.293,-1.606 0.399,-0.554 0.672,-1.062 0.828,-1.527 0.051,-0.191 0.079,-0.336 0.079,-0.441 0,-0.278 -0.137,-0.414 -0.414,-0.414 -0.071,0 -0.149,0.007 -0.235,0.027 -0.066,0.016 -0.144,0.043 -0.23,0.078 -0.313,0.121 -0.621,0.293 -0.934,0.516 -0.293,0.226 -0.594,0.508 -0.906,0.855 z"
                   style="fill:#004a00;fill-opacity:0.693694;fill-rule:nonzero;stroke:none"
                   id="path14564" /><path
                   d="m 138.16,59.414 c -0.086,0 -0.18,-0.019 -0.285,-0.055 -0.102,-0.031 -0.152,-0.109 -0.152,-0.23 0,-0.086 0.023,-0.164 0.074,-0.234 0.141,-0.258 0.391,-0.485 0.754,-0.672 0.379,-0.192 0.664,-0.285 0.851,-0.285 0.086,0 0.184,0.023 0.286,0.078 0.105,0.035 0.156,0.109 0.156,0.23 0,0.293 -0.18,0.563 -0.543,0.805 -0.348,0.242 -0.727,0.363 -1.141,0.363 z M 135.262,70 c -0.586,0 -1.055,-0.164 -1.399,-0.492 -0.343,-0.328 -0.515,-0.785 -0.515,-1.371 0,-0.344 0.031,-0.68 0.101,-1.008 0.071,-0.348 0.164,-0.684 0.285,-1.012 0.071,-0.187 0.207,-0.5 0.414,-0.929 0.223,-0.45 0.485,-0.918 0.778,-1.399 0.293,-0.5 0.578,-0.926 0.851,-1.269 0.278,-0.344 0.52,-0.52 0.727,-0.52 0.086,0 0.199,0.035 0.336,0.105 0.156,0.051 0.234,0.137 0.234,0.258 0,0.071 -0.035,0.157 -0.105,0.258 -0.395,0.449 -0.809,0.984 -1.242,1.606 -0.43,0.621 -0.793,1.269 -1.086,1.941 -0.293,0.676 -0.442,1.32 -0.442,1.941 0,0.797 0.379,1.192 1.141,1.192 0.515,0 1.035,-0.25 1.551,-0.75 0.535,-0.5 1.125,-1.172 1.761,-2.02 0.192,-0.242 0.356,-0.472 0.493,-0.699 0.156,-0.242 0.293,-0.449 0.414,-0.621 0.121,-0.121 0.25,-0.18 0.39,-0.18 0.207,0 0.309,0.078 0.309,0.231 0,0.191 -0.137,0.492 -0.414,0.906 -0.278,0.414 -0.586,0.848 -0.934,1.297 -0.672,0.828 -1.258,1.457 -1.758,1.89 -0.5,0.43 -1.132,0.645 -1.89,0.645 z"
                   style="fill:#004a00;fill-opacity:0.693694;fill-rule:nonzero;stroke:none"
                   id="path14566" /><path
                   d="m 140.984,70.055 c -0.086,0 -0.183,-0.028 -0.285,-0.078 -0.105,-0.055 -0.156,-0.122 -0.156,-0.207 0,-0.141 0.027,-0.262 0.078,-0.364 0.188,-0.414 0.43,-0.926 0.723,-1.527 0.312,-0.606 0.613,-1.227 0.906,-1.863 0.313,-0.657 0.57,-1.27 0.777,-1.84 0.227,-0.571 0.336,-1.028 0.336,-1.371 0,-0.106 -0.023,-0.2 -0.078,-0.285 -0.031,-0.106 -0.117,-0.157 -0.258,-0.157 -0.207,0 -0.414,0.086 -0.621,0.258 -0.187,0.176 -0.363,0.371 -0.515,0.598 -0.157,0.207 -0.286,0.379 -0.391,0.515 -0.344,0.469 -0.637,0.899 -0.879,1.297 -0.242,0.379 -0.492,0.758 -0.75,1.137 -0.242,0.363 -0.547,0.77 -0.906,1.219 -0.055,0.07 -0.113,0.129 -0.184,0.179 -0.051,0.036 -0.129,0.055 -0.23,0.055 -0.106,0 -0.192,-0.055 -0.262,-0.156 -0.086,-0.106 -0.101,-0.199 -0.051,-0.285 0.379,-0.606 0.75,-1.176 1.114,-1.711 0.363,-0.551 0.683,-1.024 0.957,-1.422 0.277,-0.399 0.468,-0.664 0.57,-0.805 0.293,-0.379 0.598,-0.742 0.906,-1.086 0.328,-0.343 0.77,-0.515 1.32,-0.515 0.465,0 0.786,0.129 0.958,0.386 0.191,0.258 0.285,0.563 0.285,0.907 0,0.621 -0.258,1.421 -0.778,2.406 0.641,-0.672 1.321,-1.285 2.047,-1.836 0.742,-0.555 1.434,-1.012 2.071,-1.375 0.64,-0.379 1.121,-0.609 1.449,-0.695 0.156,-0.055 0.312,-0.098 0.468,-0.133 0.172,-0.031 0.329,-0.051 0.465,-0.051 0.172,0 0.309,0.043 0.414,0.129 0.121,0.086 0.18,0.25 0.18,0.492 0,0.242 -0.152,0.586 -0.465,1.035 -0.312,0.434 -0.691,0.934 -1.14,1.504 -0.43,0.551 -0.844,1.113 -1.243,1.684 -0.394,0.566 -0.679,1.101 -0.851,1.601 -0.055,0.121 -0.09,0.243 -0.106,0.364 -0.015,0.105 -0.027,0.199 -0.027,0.285 0,0.465 0.219,0.699 0.648,0.699 0.278,0 0.622,-0.137 1.036,-0.414 0.242,-0.156 0.476,-0.328 0.699,-0.52 0.242,-0.207 0.422,-0.386 0.543,-0.543 0.262,-0.293 0.469,-0.543 0.621,-0.75 0.176,-0.207 0.34,-0.429 0.492,-0.671 0.172,-0.262 0.391,-0.579 0.649,-0.957 0.05,-0.09 0.101,-0.149 0.156,-0.184 0.051,-0.035 0.137,-0.051 0.258,-0.051 0.191,0 0.285,0.121 0.285,0.363 0,0.102 -0.078,0.286 -0.235,0.543 -0.152,0.243 -0.343,0.516 -0.57,0.829 -0.207,0.292 -0.414,0.57 -0.621,0.828 -0.188,0.242 -0.328,0.414 -0.414,0.519 -0.188,0.223 -0.43,0.457 -0.723,0.699 -0.277,0.239 -0.562,0.446 -0.855,0.621 -0.278,0.153 -0.559,0.266 -0.856,0.336 -0.293,0.067 -0.578,0.102 -0.851,0.102 -0.449,0 -0.778,-0.129 -0.985,-0.387 -0.191,-0.258 -0.285,-0.535 -0.285,-0.828 0,-0.449 0.149,-0.957 0.442,-1.527 0.308,-0.59 0.672,-1.168 1.086,-1.735 0.429,-0.589 0.828,-1.113 1.191,-1.582 0.379,-0.464 0.637,-0.8 0.777,-1.007 0.032,-0.051 0.059,-0.094 0.078,-0.129 0.016,-0.051 0.024,-0.098 0.024,-0.129 0,-0.141 -0.102,-0.207 -0.309,-0.207 -0.105,0 -0.226,0.023 -0.363,0.078 -0.707,0.293 -1.449,0.723 -2.227,1.293 -0.761,0.57 -1.468,1.191 -2.125,1.863 -0.636,0.656 -1.144,1.277 -1.527,1.863 l -1.035,1.633 c -0.086,0.137 -0.164,0.285 -0.231,0.438 -0.07,0.14 -0.148,0.277 -0.234,0.418 -0.101,0.136 -0.234,0.207 -0.387,0.207 z"
                   style="fill:#004a00;fill-opacity:0.693694;fill-rule:nonzero;stroke:none"
                   id="path14568" /><path
                   d="m 164.465,71.789 c -0.277,0 -0.555,-0.019 -0.828,-0.055 -0.262,-0.015 -0.528,-0.035 -0.805,-0.05 -1.07,-0.137 -1.949,-0.516 -2.641,-1.141 -0.671,-0.602 -1.171,-1.328 -1.5,-2.172 -0.312,-0.863 -0.464,-1.711 -0.464,-2.539 0,-0.758 0.093,-1.5 0.281,-2.227 0.207,-0.742 0.476,-1.457 0.805,-2.148 0.878,-1.793 2.07,-3.391 3.57,-4.789 1.519,-1.398 3.308,-2.492 5.359,-3.289 l -0.023,-0.102 c -0.899,0.036 -1.856,0.137 -2.875,0.309 -1.02,0.176 -2.02,0.414 -3.004,0.727 -0.965,0.312 -1.82,0.699 -2.563,1.164 -1.277,0.761 -1.914,1.804 -1.914,3.132 0,0.243 -0.148,0.364 -0.441,0.364 -0.277,0 -0.414,-0.121 -0.414,-0.364 0,-1.57 0.75,-2.804 2.254,-3.703 0.894,-0.535 1.914,-0.972 3.054,-1.32 1.137,-0.344 2.313,-0.602 3.52,-0.773 1.207,-0.176 2.34,-0.262 3.391,-0.262 0.261,0 0.519,0 0.777,0 0.258,0 0.519,0.019 0.777,0.054 0.5,-0.121 1.008,-0.218 1.528,-0.285 0.515,-0.07 1.035,-0.105 1.554,-0.105 0.188,0 0.438,0.027 0.75,0.078 0.328,0.035 0.645,0.105 0.957,0.207 0.328,0.086 0.606,0.207 0.828,0.363 0.227,0.157 0.336,0.352 0.336,0.594 0,0.106 -0.043,0.191 -0.129,0.262 -0.085,0.051 -0.191,0.074 -0.308,0.074 -0.121,0 -0.207,-0.023 -0.262,-0.074 -0.051,-0.055 -0.101,-0.121 -0.152,-0.207 -0.176,-0.297 -0.485,-0.461 -0.934,-0.492 -0.449,-0.055 -0.847,-0.079 -1.191,-0.079 -0.051,0 -0.113,0.008 -0.18,0.024 -0.055,0 -0.113,0 -0.183,0 l -0.024,0.105 c 1.692,0.485 2.984,1.321 3.883,2.512 0.898,1.172 1.344,2.527 1.344,4.063 0,1.261 -0.258,2.488 -0.774,3.675 -0.519,1.176 -1.234,2.282 -2.148,3.317 -0.899,1.015 -1.953,1.914 -3.16,2.691 -1.192,0.777 -2.477,1.379 -3.86,1.813 -1.363,0.429 -2.758,0.648 -4.191,0.648 z m -0.027,-0.754 c 1.328,0 2.64,-0.207 3.937,-0.621 1.293,-0.414 2.508,-0.984 3.648,-1.707 1.141,-0.727 2.141,-1.562 3.004,-2.512 0.864,-0.965 1.536,-2.004 2.02,-3.105 0.5,-1.121 0.75,-2.27 0.75,-3.445 0,-1.223 -0.293,-2.286 -0.879,-3.184 -0.59,-0.898 -1.398,-1.606 -2.434,-2.121 -1.019,-0.535 -2.211,-0.863 -3.574,-0.985 -2.504,0.551 -4.676,1.579 -6.523,3.079 -1.848,1.484 -3.262,3.254 -4.246,5.308 -0.328,0.656 -0.586,1.34 -0.778,2.047 -0.187,0.688 -0.285,1.399 -0.285,2.121 0,0.707 0.129,1.434 0.391,2.176 0.258,0.723 0.664,1.355 1.215,1.891 0.57,0.535 1.32,0.863 2.254,0.98 0.242,0.035 0.492,0.055 0.75,0.055 0.257,0.015 0.507,0.023 0.75,0.023 z"
                   style="fill:#004a00;fill-opacity:0.693694;fill-rule:nonzero;stroke:none"
                   id="path14570" /><path
                   d="m 179.609,70.055 c -0.086,0 -0.183,-0.028 -0.285,-0.078 -0.105,-0.055 -0.156,-0.122 -0.156,-0.207 0,-0.141 0.027,-0.262 0.078,-0.364 0.192,-0.414 0.434,-0.926 0.727,-1.527 0.308,-0.606 0.609,-1.227 0.906,-1.863 0.309,-0.657 0.566,-1.27 0.773,-1.84 0.227,-0.571 0.34,-1.028 0.34,-1.371 0,-0.106 -0.027,-0.2 -0.078,-0.285 -0.035,-0.106 -0.121,-0.157 -0.262,-0.157 -0.207,0 -0.414,0.086 -0.621,0.258 -0.187,0.176 -0.359,0.371 -0.515,0.598 -0.157,0.207 -0.286,0.379 -0.391,0.515 -0.344,0.469 -0.637,0.899 -0.879,1.297 -0.242,0.379 -0.492,0.758 -0.75,1.137 -0.242,0.363 -0.543,0.77 -0.906,1.219 -0.051,0.07 -0.113,0.129 -0.18,0.179 -0.055,0.036 -0.133,0.055 -0.234,0.055 -0.106,0 -0.192,-0.055 -0.258,-0.156 -0.086,-0.106 -0.105,-0.199 -0.055,-0.285 0.383,-0.606 0.754,-1.176 1.114,-1.711 0.363,-0.551 0.683,-1.024 0.961,-1.422 0.273,-0.399 0.464,-0.664 0.566,-0.805 0.293,-0.379 0.598,-0.742 0.906,-1.086 0.328,-0.343 0.77,-0.515 1.32,-0.515 0.469,0 0.786,0.129 0.961,0.386 0.188,0.258 0.282,0.563 0.282,0.907 0,0.621 -0.258,1.421 -0.774,2.406 0.637,-0.672 1.321,-1.285 2.043,-1.836 0.742,-0.555 1.434,-1.012 2.071,-1.375 0.64,-0.379 1.125,-0.609 1.453,-0.695 0.152,-0.055 0.308,-0.098 0.464,-0.133 0.172,-0.031 0.329,-0.051 0.465,-0.051 0.172,0 0.313,0.043 0.414,0.129 0.121,0.086 0.184,0.25 0.184,0.492 0,0.242 -0.156,0.586 -0.469,1.035 -0.308,0.434 -0.687,0.934 -1.136,1.504 -0.434,0.551 -0.848,1.113 -1.243,1.684 -0.398,0.566 -0.683,1.101 -0.855,1.601 -0.051,0.121 -0.086,0.243 -0.106,0.364 -0.015,0.105 -0.023,0.199 -0.023,0.285 0,0.465 0.215,0.699 0.644,0.699 0.278,0 0.622,-0.137 1.036,-0.414 0.242,-0.156 0.476,-0.328 0.699,-0.52 0.242,-0.207 0.426,-0.386 0.547,-0.543 0.258,-0.293 0.465,-0.543 0.621,-0.75 0.172,-0.207 0.336,-0.429 0.492,-0.671 0.172,-0.262 0.387,-0.579 0.645,-0.957 0.054,-0.09 0.105,-0.149 0.156,-0.184 0.051,-0.035 0.137,-0.051 0.258,-0.051 0.191,0 0.285,0.121 0.285,0.363 0,0.102 -0.078,0.286 -0.231,0.543 -0.156,0.243 -0.347,0.516 -0.57,0.829 -0.207,0.292 -0.414,0.57 -0.621,0.828 -0.192,0.242 -0.328,0.414 -0.414,0.519 -0.192,0.223 -0.434,0.457 -0.727,0.699 -0.277,0.239 -0.562,0.446 -0.855,0.621 -0.274,0.153 -0.559,0.266 -0.852,0.336 -0.293,0.067 -0.578,0.102 -0.855,0.102 -0.449,0 -0.778,-0.129 -0.985,-0.387 -0.187,-0.258 -0.285,-0.535 -0.285,-0.828 0,-0.449 0.149,-0.957 0.442,-1.527 0.308,-0.59 0.672,-1.168 1.086,-1.735 0.433,-0.589 0.828,-1.113 1.191,-1.582 0.379,-0.464 0.641,-0.8 0.777,-1.007 0.035,-0.051 0.059,-0.094 0.078,-0.129 0.016,-0.051 0.024,-0.098 0.024,-0.129 0,-0.141 -0.102,-0.207 -0.309,-0.207 -0.105,0 -0.226,0.023 -0.363,0.078 -0.707,0.293 -1.449,0.723 -2.227,1.293 -0.757,0.57 -1.464,1.191 -2.121,1.863 -0.64,0.656 -1.148,1.277 -1.527,1.863 l -1.035,1.633 c -0.09,0.137 -0.164,0.285 -0.235,0.438 -0.07,0.14 -0.148,0.277 -0.234,0.418 -0.101,0.136 -0.23,0.207 -0.387,0.207 z"
                   style="fill:#004a00;fill-opacity:0.693694;fill-rule:nonzero;stroke:none"
                   id="path14572" /><path
                   d="m 191.934,70.234 c -0.899,0 -1.528,-0.257 -1.891,-0.777 -0.348,-0.535 -0.52,-1.156 -0.52,-1.863 0,-0.52 0.129,-1.129 0.391,-1.84 0.258,-0.723 0.609,-1.43 1.059,-2.121 0.468,-0.692 1.004,-1.262 1.605,-1.711 0.606,-0.465 1.254,-0.695 1.942,-0.695 0.449,0 0.804,0.128 1.062,0.386 0.277,0.242 0.414,0.551 0.414,0.934 0,0.723 -0.234,1.422 -0.699,2.094 -0.465,0.675 -1.07,1.226 -1.813,1.66 -0.742,0.429 -1.535,0.644 -2.382,0.644 -0.102,0 -0.207,0 -0.309,0 -0.105,-0.015 -0.207,-0.035 -0.313,-0.05 -0.05,0.222 -0.074,0.484 -0.074,0.777 0,0.449 0.102,0.863 0.309,1.242 0.226,0.379 0.648,0.57 1.269,0.57 0.516,0 1.02,-0.129 1.5,-0.39 0.485,-0.258 0.891,-0.551 1.219,-0.879 0.328,-0.328 0.602,-0.621 0.828,-0.879 0.223,-0.262 0.457,-0.555 0.699,-0.883 0.243,-0.344 0.543,-0.793 0.907,-1.344 0.066,-0.121 0.172,-0.183 0.308,-0.183 0.243,0 0.364,0.129 0.364,0.39 0,0.086 -0.016,0.153 -0.051,0.207 -0.469,0.793 -0.985,1.551 -1.555,2.278 -0.57,0.707 -1.207,1.293 -1.914,1.762 -0.691,0.445 -1.476,0.671 -2.355,0.671 z m -0.649,-4.089 c 0.656,0 1.27,-0.172 1.836,-0.52 0.59,-0.363 1.063,-0.809 1.426,-1.344 0.379,-0.535 0.57,-1.082 0.57,-1.633 0,-0.191 -0.054,-0.343 -0.156,-0.464 C 194.875,62.063 194.719,62 194.496,62 c -0.449,0 -0.883,0.156 -1.297,0.469 -0.414,0.293 -0.793,0.672 -1.136,1.136 -0.329,0.45 -0.614,0.899 -0.856,1.348 -0.223,0.449 -0.387,0.828 -0.492,1.141 0.086,0.015 0.172,0.031 0.258,0.051 0.105,0 0.207,0 0.312,0 z"
                   style="fill:#004a00;fill-opacity:0.693694;fill-rule:nonzero;stroke:none"
                   id="path14574" /></g></g></g></g><path
           d="m 97.039,48.824 v -25.16 h 3.949 c 2.293,0 3.969,0.149 5.032,0.445 1.503,0.399 2.703,1.141 3.589,2.223 0.891,1.082 1.336,2.359 1.336,3.832 0,0.957 -0.207,1.828 -0.617,2.617 -0.398,0.774 -1.055,1.504 -1.965,2.188 1.528,0.719 2.645,1.621 3.352,2.703 0.707,1.07 1.058,2.344 1.058,3.812 0,1.414 -0.363,2.704 -1.093,3.868 -0.731,1.164 -1.672,2.035 -2.821,2.617 -1.152,0.57 -2.742,0.855 -4.773,0.855 z m 4.789,-20.594 v 5.301 h 1.043 c 1.164,0 2.024,-0.242 2.582,-0.734 0.57,-0.492 0.856,-1.156 0.856,-2 0,-0.789 -0.266,-1.41 -0.805,-1.867 -0.535,-0.465 -1.352,-0.7 -2.445,-0.7 z m 0,9.579 v 6.449 h 1.195 c 1.985,0 3.321,-0.25 4.004,-0.754 0.696,-0.5 1.043,-1.231 1.043,-2.188 0,-1.086 -0.402,-1.941 -1.215,-2.566 -0.808,-0.629 -2.152,-0.941 -4.035,-0.941 z"
           style="fill:#3f51b5;fill-opacity:1;fill-rule:nonzero;stroke:none"
           id="path14582" /><path
           d="m 130.492,30.215 h 4.653 v 18.609 h -4.653 v -1.969 c -0.91,0.868 -1.828,1.497 -2.754,1.883 -0.91,0.375 -1.902,0.567 -2.976,0.567 -2.407,0 -4.485,-0.93 -6.242,-2.789 -1.754,-1.871 -2.633,-4.192 -2.633,-6.961 0,-2.875 0.847,-5.231 2.547,-7.067 1.699,-1.836 3.765,-2.754 6.191,-2.754 1.117,0 2.168,0.211 3.148,0.633 0.981,0.422 1.887,1.055 2.719,1.899 z m -4.906,3.832 c -1.449,0 -2.652,0.512 -3.609,1.539 -0.961,1.016 -1.438,2.32 -1.438,3.914 0,1.609 0.484,2.934 1.453,3.969 0.981,1.039 2.184,1.558 3.61,1.558 1.472,0 2.691,-0.507 3.66,-1.523 0.968,-1.027 1.453,-2.367 1.453,-4.02 0,-1.617 -0.485,-2.929 -1.453,-3.933 -0.969,-1.004 -2.196,-1.504 -3.676,-1.504 z m 1.18,-13.942 h 5.523 l -6.262,6.704 h -3.351 z"
           style="fill:#3f51b5;fill-opacity:1;fill-rule:nonzero;stroke:none"
           id="path14584" /><path
           d="m 151.152,32.813 -2.89,2.89 c -1.172,-1.16 -2.239,-1.742 -3.196,-1.742 -0.527,0 -0.937,0.113 -1.234,0.34 -0.297,0.219 -0.445,0.492 -0.445,0.824 0,0.25 0.093,0.484 0.273,0.699 0.195,0.207 0.664,0.492 1.406,0.856 l 1.707,0.855 c 1.805,0.891 3.04,1.797 3.715,2.719 0.672,0.926 1.008,2.008 1.008,3.25 0,1.652 -0.609,3.035 -1.832,4.141 -1.207,1.105 -2.832,1.66 -4.875,1.66 -2.711,0 -4.879,-1.063 -6.496,-3.184 l 2.871,-3.129 c 0.547,0.637 1.188,1.156 1.918,1.555 0.738,0.387 1.395,0.582 1.965,0.582 0.617,0 1.113,-0.149 1.488,-0.445 0.375,-0.297 0.567,-0.637 0.567,-1.024 0,-0.719 -0.68,-1.422 -2.036,-2.105 l -1.574,-0.785 c -3.012,-1.52 -4.515,-3.418 -4.515,-5.7 0,-1.468 0.562,-2.722 1.691,-3.761 1.141,-1.047 2.594,-1.575 4.363,-1.575 1.207,0 2.344,0.27 3.403,0.805 1.074,0.524 1.98,1.281 2.718,2.274 z"
           style="fill:#3f51b5;fill-opacity:1;fill-rule:nonzero;stroke:none"
           id="path14586" /><path
           d="m 173.285,33.977 -3.883,2.14 c -0.73,-0.765 -1.453,-1.297 -2.172,-1.594 -0.707,-0.296 -1.539,-0.445 -2.496,-0.445 -1.746,0 -3.16,0.527 -4.242,1.574 -1.074,1.039 -1.609,2.371 -1.609,4.004 0,1.586 0.519,2.879 1.558,3.883 1.036,1.004 2.399,1.504 4.086,1.504 2.086,0 3.711,-0.711 4.875,-2.137 l 3.676,2.516 c -1.992,2.586 -4.808,3.883 -8.449,3.883 -3.27,0 -5.836,-0.973 -7.695,-2.91 -1.848,-1.938 -2.77,-4.207 -2.77,-6.809 0,-1.801 0.449,-3.461 1.348,-4.977 0.902,-1.515 2.156,-2.707 3.765,-3.574 1.618,-0.867 3.426,-1.301 5.422,-1.301 1.848,0 3.508,0.371 4.977,1.114 1.472,0.73 2.676,1.773 3.609,3.129 z"
           style="fill:#3f51b5;fill-opacity:1;fill-rule:nonzero;stroke:none"
           id="path14588" /><path
           d="m 177.371,30.215 h 4.723 v 8.961 c 0,1.746 0.117,2.961 0.359,3.644 0.238,0.672 0.621,1.196 1.145,1.575 0.535,0.375 1.191,0.562 1.965,0.562 0.777,0 1.433,-0.18 1.968,-0.547 0.547,-0.375 0.953,-0.922 1.215,-1.64 0.195,-0.536 0.289,-1.684 0.289,-3.438 v -9.117 h 4.688 v 7.883 c 0,3.25 -0.258,5.476 -0.77,6.672 -0.625,1.46 -1.551,2.582 -2.769,3.371 -1.223,0.773 -2.774,1.164 -4.653,1.164 -2.043,0 -3.695,-0.457 -4.961,-1.371 -1.254,-0.911 -2.136,-2.184 -2.652,-3.813 -0.363,-1.129 -0.547,-3.183 -0.547,-6.16 z"
           style="fill:#3f51b5;fill-opacity:1;fill-rule:nonzero;stroke:none"
           id="path14590" /><path
           d="m 197.809,23.031 h 4.672 v 25.793 h -4.672 z"
           style="fill:#3f51b5;fill-opacity:1;fill-rule:nonzero;stroke:none"
           id="path14592" /><path
           d="m 220.352,30.215 h 4.652 v 18.609 h -4.652 v -1.969 c -0.914,0.868 -1.832,1.497 -2.754,1.883 -0.914,0.375 -1.907,0.567 -2.977,0.567 -2.406,0 -4.488,-0.93 -6.242,-2.789 -1.758,-1.871 -2.637,-4.192 -2.637,-6.961 0,-2.875 0.852,-5.231 2.551,-7.067 1.699,-1.836 3.762,-2.754 6.191,-2.754 1.118,0 2.168,0.211 3.149,0.633 0.98,0.422 1.887,1.055 2.719,1.899 z m -4.911,3.832 c -1.449,0 -2.648,0.512 -3.609,1.539 -0.957,1.016 -1.437,2.32 -1.437,3.914 0,1.609 0.488,2.934 1.457,3.969 0.98,1.039 2.183,1.558 3.609,1.558 1.469,0 2.691,-0.507 3.66,-1.523 0.969,-1.027 1.453,-2.367 1.453,-4.02 0,-1.617 -0.484,-2.929 -1.453,-3.933 -0.969,-1.004 -2.195,-1.504 -3.68,-1.504 z"
           style="fill:#3f51b5;fill-opacity:1;fill-rule:nonzero;stroke:none"
           id="path14594" /></g><g
         id="g14596"><g
           id="g14598"
           clip-path="url(#clipPath14602)"><g
             id="g14604"
             clip-path="url(#clipPath14608)"><g
               id="g14610"><g
                 id="g14612" /><g
                 id="g14710"><g
                   clip-path="url(#clipPath14616)"
                   id="g14708"><g
                     id="g14672"><path
                       d="M 91.996,46 C 91.996,71.402 71.402,91.996 46,91.996 20.594,91.996 0,71.402 0,46 0,33.801 4.848,22.098 13.473,13.473 22.098,4.848 33.801,0 46,0 58.199,0 69.898,4.848 78.523,13.473 87.152,22.098 91.996,33.801 91.996,46 Z"
                       style="fill:#f9f9f9;fill-opacity:1;fill-rule:nonzero;stroke:none"
                       id="path14634" /><path
                       d="m 25.207,45.016 c 0,1.695 1.617,3.304 3.305,3.304 h 33.054 c 1.696,0 3.309,-1.617 3.309,-3.304 h 6.609 c 0,5.476 -4.437,9.918 -9.918,9.918 H 48.344 l 0.004,6.816 c 13.043,1.629 23.418,8.563 23.418,22.047 v 19.836 c 0,1.824 -1.485,3.305 -3.309,3.305 H 22.18 c -1.825,0 -3.305,-1.481 -3.305,-3.305 V 83.797 c 0,-13.484 9.816,-20.422 22.859,-22.047 V 54.934 H 28.512 c -5.489,0 -9.918,-4.43 -9.918,-9.918 z m 19.832,23.14 c -10.703,0 -19.555,4.93 -19.555,15.641 v 16.527 H 65.152 V 83.797 c 0,-10.703 -9.41,-15.641 -20.113,-15.641 z"
                       style="fill:#4d4d4d;fill-opacity:1;fill-rule:nonzero;stroke:none"
                       id="path14636" /><path
                       d="m 39.422,20.629 v -1.652 h -5.09 v 1.652 c -2.195,1.406 -3.469,4.601 -3.391,7.406 0.036,1.184 1.254,2.356 1.614,3.715 0.363,1.355 0,3.32 0,4.816 0.004,1.051 -1.289,2.231 -1.614,3.485 -0.5,1.957 0,6.012 0,6.012 -0.019,1.246 1.141,2.257 2.543,2.257 h 6.786 c 1.402,0 2.543,-1.011 2.543,-2.257 0,0 0.433,-3.934 -0.118,-6.012 -0.293,-1.113 -1.617,-3.094 -1.668,-3.485 -0.031,-0.211 -0.343,-3.242 0,-4.816 0.282,-1.312 1.664,-2.383 1.668,-3.715 0.012,-2.652 -0.773,-5.91 -3.273,-7.406 z"
                       style="fill:#fbc896;fill-opacity:1;fill-rule:nonzero;stroke:none"
                       id="path14638" /><path
                       d="m 39.414,16.457 c 0,-0.422 -0.379,-0.762 -0.844,-0.762 h -3.386 c -0.465,0 -0.844,0.34 -0.844,0.762 v 3.059 h 5.074 z"
                       style="fill:#f45f00;fill-opacity:1;fill-rule:nonzero;stroke:none"
                       id="path14640" /><path
                       d="m 59.828,28.008 v -4.063 c 0,-0.98 -1.293,-3.972 -3.25,-5.531 v -1.785 h -4.875 v 1.785 c -1.957,1.559 -3.254,4.551 -3.254,5.531 v 4.063 c 0,1.347 1.625,1.625 1.625,2.437 0,0.813 -1.625,1.094 -1.625,2.442 v 13.004 c 0,1.343 1.094,2.437 2.442,2.437 h 6.5 c 1.347,0 2.437,-1.094 2.437,-2.437 V 32.887 c 0,-1.348 -1.625,-1.629 -1.625,-2.442 0,-0.812 1.625,-1.09 1.625,-2.437 z"
                       style="fill:#bee3e8;fill-opacity:1;fill-rule:nonzero;stroke:none"
                       id="path14642" /><path
                       d="m 56.578,15.004 c 0,-0.449 -0.363,-0.813 -0.812,-0.813 h -3.25 c -0.45,0 -0.813,0.364 -0.813,0.813 v 3.25 h 4.875 z"
                       style="fill:#3f51b5;fill-opacity:1;fill-rule:nonzero;stroke:none"
                       id="path14644" /><path
                       d="m 59.828,41.656 c -0.25,0.141 -1.34,0.645 -1.57,0.731 -0.363,0.136 -0.742,0.273 -1.106,0.402 -0.531,0.188 -1.047,0.203 -1.664,0.203 -0.871,0 -1.672,-0.183 -2.41,-0.387 -0.246,-0.066 -0.492,-0.14 -0.738,-0.218 -0.777,-0.231 -1.578,-0.473 -2.418,-0.547 -0.438,-0.035 -0.918,0.012 -1.473,0.133 v 1.699 c 0.082,-0.035 0.168,-0.067 0.246,-0.098 0.438,-0.105 0.793,-0.144 1.078,-0.117 0.676,0.063 1.368,0.27 2.098,0.488 0.258,0.078 0.52,0.157 0.777,0.227 0.848,0.23 1.778,0.445 2.84,0.445 0.723,0 1.434,-0.019 2.211,-0.297 0.371,-0.132 0.758,-0.273 1.133,-0.414 0.145,-0.054 0.578,-0.246 0.996,-0.441 z"
                       style="fill:#00bcd4;fill-opacity:1;fill-rule:nonzero;stroke:none"
                       id="path14646" /><path
                       d="m 58.258,39.133 c -0.363,0.14 -0.742,0.277 -1.106,0.406 -0.531,0.188 -1.047,0.203 -1.664,0.203 -0.871,0 -1.672,-0.187 -2.41,-0.39 -0.246,-0.067 -0.492,-0.141 -0.738,-0.215 -0.777,-0.235 -1.578,-0.473 -2.418,-0.551 -0.438,-0.035 -0.918,0.016 -1.473,0.133 v 1.699 c 0.082,-0.031 0.168,-0.066 0.246,-0.098 0.438,-0.101 0.793,-0.144 1.078,-0.113 0.676,0.059 1.368,0.266 2.098,0.488 0.258,0.078 0.52,0.153 0.777,0.227 0.848,0.23 1.778,0.445 2.84,0.445 0.723,0 1.434,-0.023 2.211,-0.297 0.371,-0.136 0.758,-0.273 1.133,-0.414 0.145,-0.054 0.578,-0.246 0.996,-0.441 v -1.809 c -0.25,0.141 -1.34,0.641 -1.57,0.727 z"
                       style="fill:#3f51b5;fill-opacity:1;fill-rule:nonzero;stroke:none"
                       id="path14648" /><path
                       d="m 58.258,35.883 c -0.363,0.137 -0.742,0.273 -1.106,0.402 -0.531,0.192 -1.047,0.207 -1.664,0.207 -0.871,0 -1.672,-0.187 -2.41,-0.39 -0.246,-0.067 -0.492,-0.141 -0.738,-0.215 -0.777,-0.235 -1.578,-0.473 -2.418,-0.551 -0.438,-0.035 -0.918,0.012 -1.473,0.133 v 1.699 c 0.082,-0.031 0.168,-0.066 0.246,-0.098 0.438,-0.105 0.793,-0.144 1.078,-0.113 0.676,0.059 1.368,0.266 2.098,0.484 0.258,0.079 0.52,0.157 0.777,0.227 0.848,0.234 1.778,0.449 2.84,0.449 0.723,0 1.434,-0.023 2.211,-0.301 0.371,-0.132 0.758,-0.273 1.133,-0.414 0.145,-0.054 0.578,-0.246 0.996,-0.441 v -1.809 c -0.25,0.141 -1.34,0.645 -1.57,0.731 z"
                       style="fill:#3f51b5;fill-opacity:1;fill-rule:nonzero;stroke:none"
                       id="path14650" /><path
                       d="m 47.922,22.934 v -1.516 h -4.137 v 1.516 c -3.289,2.789 -2.758,6.339 -2.758,10.211 0.192,2.515 0,13.105 0,13.105 0,1.141 0.926,2.066 2.067,2.066 h 5.519 c 1.141,0 2.067,-0.925 2.067,-2.066 V 29.969 c 0,-3.172 -1.098,-5.711 -2.758,-7.035 z"
                       style="fill:#cccccc;fill-opacity:1;fill-rule:nonzero;stroke:none"
                       id="path14652" /><path
                       d="m 48.598,18.789 c 0,-0.508 -0.41,-0.914 -0.914,-0.914 h -3.661 c -0.503,0 -0.914,0.406 -0.914,0.914 v 3.66 h 5.489 z"
                       style="fill:#b53f49;fill-opacity:1;fill-rule:nonzero;stroke:none"
                       id="path14654" /><g
                       id="g14666"><g
                         id="g14656" /><g
                         id="g14664"><g
                           clip-path="url(#clipPath14620)"
                           opacity="0.92"
                           id="g14662"><g
                             id="g14660"><path
                               d="m 41.016,31.926 h 9.68 v 8.883 h -9.68 z"
                               style="fill:#800000;fill-opacity:1;fill-rule:nonzero;stroke:none"
                               id="path14658" /></g></g></g></g><path
                       d="m 57.297,45.199 1.59,-0.015 -0.043,-4.34 -1.59,0.015 c -4.07,-1.722 -8.719,-2.57 -10.727,-2.785 -2.004,-0.215 -13.683,0.133 -13.683,0.133 -0.989,0.008 -2.125,-0.066 -2.117,1.227 l 0.003,0.961 c 0.004,1.058 1.489,0.988 1.489,0.988 0,0 -1.461,0.097 -1.477,1.133 l 0.008,1.656 c 0.004,0.945 1.504,1.023 1.504,1.023 0,0 -1.5,-0.011 -1.496,0.985 l 0.004,1 c 0.008,1.078 1.269,1.156 2.133,1.144 0,0 11.812,0.117 13.683,-0.066 1.875,-0.18 6.774,-1.438 10.719,-3.059 z"
                       style="fill:#8bb772;fill-opacity:1;fill-rule:nonzero;stroke:none"
                       id="path14668" /><path
                       d="m 61.648,45.863 c 0.532,-0.008 0.957,-0.437 0.95,-0.968 l -0.035,-3.836 c -0.004,-0.528 -0.438,-0.954 -0.969,-0.95 l -3.836,0.039 0.058,5.75 z"
                       style="fill:#205900;fill-opacity:1;fill-rule:nonzero;stroke:none"
                       id="path14670" /></g><g
                     id="g14706"><g
                       clip-path="url(#clipPath14624)"
                       id="g14704"><g
                         clip-path="url(#clipPath14628)"
                         id="g14702"><g
                           id="g14700"><g
                             id="g14698"><g
                               clip-path="url(#clipPath14632)"
                               id="g14696"><g
                                 id="g14694"><path
                                   d="m 55.188,81.559 c 0,5.074 -4.114,9.187 -9.188,9.187 -5.074,0 -9.187,-4.113 -9.187,-9.187 0,-5.075 4.113,-9.188 9.187,-9.188 5.074,0 9.188,4.113 9.188,9.188 z"
                                   style="fill:#40b52a;fill-opacity:1;fill-rule:nonzero;stroke:none"
                                   id="path14674" /><path
                                   d="m 42.98,87.012 c 0,-0.004 0,0 0.004,-0.004 h 0.133 c 0,0 0.004,0 0.008,0 l 2.273,-0.012 -0.019,-2.781 -2.207,0.015 h -0.277 l -0.665,0.004 -1.605,0.012 1.215,2.074 c 0.246,0.426 0.683,0.668 1.14,0.692 z"
                                   style="fill:#ffffff;fill-opacity:1;fill-rule:nonzero;stroke:none"
                                   id="path14676" /><path
                                   d="m 40.211,82.164 c -0.117,0.203 -0.184,0.441 -0.184,0.695 0.004,0.25 0.075,0.489 0.192,0.692 l 1.215,2.078 0.406,0.691 c -0.246,-0.422 -0.246,-0.918 -0.043,-1.328 l 0.074,-0.129 1.918,-3.367 -2.414,-1.375 z"
                                   style="fill:#ffffff;fill-opacity:1;fill-rule:nonzero;stroke:none"
                                   id="path14678" /><path
                                   d="m 40.219,80.129 4.152,2.363 -1.394,-2.379 z"
                                   style="fill:#ffffff;fill-opacity:1;fill-rule:nonzero;stroke:none"
                                   id="path14680" /><path
                                   d="m 43.363,76.629 -0.066,0.117 c 0,0 0,0.004 -0.004,0.008 l -1.125,1.973 2.414,1.375 1.094,-1.918 0.137,-0.243 0.332,-0.578 0.793,-1.394 -2.407,0.015 c -0.492,0.004 -0.922,0.258 -1.168,0.645 z"
                                   style="fill:#ffffff;fill-opacity:1;fill-rule:nonzero;stroke:none"
                                   id="path14682" /><path
                                   d="m 48.945,76.652 c -0.117,-0.203 -0.289,-0.379 -0.507,-0.504 -0.223,-0.125 -0.461,-0.183 -0.7,-0.183 l -2.406,0.015 -0.801,0.004 c 0.489,-0.004 0.918,0.246 1.172,0.625 l 0.074,0.133 1.957,3.344 2.399,-1.406 z"
                                   style="fill:#ffffff;fill-opacity:1;fill-rule:nonzero;stroke:none"
                                   id="path14684" /><path
                                   d="M 50.707,77.676 46.578,80.09 49.34,80.074 Z"
                                   style="fill:#ffffff;fill-opacity:1;fill-rule:nonzero;stroke:none"
                                   id="path14686" /><path
                                   d="m 48.547,81.469 1.113,1.906 0.141,0.242 0.336,0.574 0.808,1.383 1.192,-2.09 c 0.242,-0.425 0.238,-0.925 0.027,-1.332 0,0 0,0 0,-0.004 l -0.07,-0.113 c 0,-0.004 0,-0.004 -0.004,-0.008 l -1.145,-1.961 z"
                                   style="fill:#ffffff;fill-opacity:1;fill-rule:nonzero;stroke:none"
                                   id="path14688" /><path
                                   d="m 49.352,86.973 c 0.234,0 0.472,-0.063 0.691,-0.188 0.219,-0.129 0.391,-0.308 0.508,-0.512 l 1.191,-2.093 0.395,-0.696 c -0.242,0.422 -0.672,0.672 -1.125,0.7 l -0.153,0.004 -3.875,0.019 0.016,2.781 z"
                                   style="fill:#ffffff;fill-opacity:1;fill-rule:nonzero;stroke:none"
                                   id="path14690" /><path
                                   d="m 47.586,87.984 -0.027,-4.781 -1.368,2.399 z"
                                   style="fill:#ffffff;fill-opacity:1;fill-rule:nonzero;stroke:none"
                                   id="path14692" /></g></g></g></g></g></g></g></g></g></g></g></g></g></g></g></svg>
