<?xml version="1.0" encoding="UTF-8" standalone="no"?>
<!-- Created with Inkscape (http://www.inkscape.org/) -->

<svg
   version="1.1"
   id="svg1695"
   width="283.58292"
   height="112.12276"
   viewBox="0 0 283.58292 112.12276"
   xmlns="http://www.w3.org/2000/svg"
   xmlns:svg="http://www.w3.org/2000/svg">
  <defs
     id="defs1699">
    <clipPath
       clipPathUnits="userSpaceOnUse"
       id="clipPath1713">
      <path
         d="M 0,0 H 213 V 85 H 0 Z"
         id="path1711" />
    </clipPath>
  </defs>
  <g
     id="g1703"
     transform="matrix(1.3333333,0,0,1.3333333,0,1.4697357e-6)">
    <g
       id="g1705">
      <g
         id="g1707">
        <g
           id="g1709" />
        <g
           id="g1735">
          <g
             clip-path="url(#clipPath1713)"
             opacity="0.92"
             id="g1733">
            <g
               id="g1731">
              <path
                 d="M 7.215,84.094 C 5.527,84.094 4.145,83.746 3.07,83.059 2.02,82.367 1.242,81.43 0.75,80.238 0.25,79.078 0,77.781 0,76.344 c 0,-2.211 0.543,-4.5 1.621,-6.875 0.801,-1.715 1.863,-3.293 3.188,-4.731 1.324,-1.461 2.82,-2.625 4.476,-3.476 1.656,-0.887 3.403,-1.328 5.219,-1.328 1.41,0 2.527,0.191 3.359,0.578 0.825,0.363 1.418,0.847 1.782,1.453 0.39,0.582 0.582,1.199 0.582,1.859 0,0.914 -0.274,1.774 -0.832,2.574 -0.551,0.797 -1.227,1.313 -2.032,1.536 -0.023,0.027 -0.066,0.039 -0.121,0.039 -0.027,0.031 -0.086,0.043 -0.168,0.043 0.059,0 0.114,-0.012 0.168,-0.043 0.028,0 0.039,0 0.039,0 l 0.082,-0.039 c 0.387,-0.168 0.762,-0.594 1.121,-1.286 0.387,-0.687 0.579,-1.437 0.579,-2.238 0,-0.883 -0.329,-1.683 -0.993,-2.402 -0.664,-0.719 -1.894,-1.082 -3.691,-1.082 -1.598,0 -3.16,0.433 -4.68,1.289 -1.488,0.855 -2.847,1.988 -4.058,3.394 -1.188,1.414 -2.157,2.934 -2.903,4.559 -0.937,2.129 -1.406,4.199 -1.406,6.219 0,1.82 0.469,3.371 1.406,4.64 0.938,1.27 2.434,1.907 4.477,1.907 1.187,0 2.414,-0.332 3.687,-0.993 1.297,-0.664 2.598,-1.519 3.899,-2.57 1.324,-1.082 2.605,-2.25 3.851,-3.527 1.27,-1.27 2.457,-2.492 3.563,-3.68 -1.051,0.106 -2.055,0.242 -3.027,0.41 -0.938,0.137 -1.848,0.321 -2.731,0.539 h -0.168 c -0.332,0 -0.496,-0.168 -0.496,-0.5 0,-0.14 0.051,-0.277 0.164,-0.414 0.113,-0.164 0.262,-0.261 0.457,-0.289 2.02,-0.332 4.215,-0.605 6.59,-0.828 4.527,-5.359 8.144,-9.562 10.851,-12.602 2.711,-3.039 4.868,-4.902 6.465,-5.589 0.641,-0.274 1.246,-0.418 1.828,-0.418 0.606,0 0.907,0.195 0.907,0.582 0,0.386 -0.367,0.957 -1.114,1.699 -1,1.019 -2.019,2.391 -3.07,4.101 -1.019,1.715 -1.988,3.598 -2.898,5.637 -0.883,2.016 -1.614,4.063 -2.196,6.133 0.387,0 0.707,0 0.95,0 0.25,-0.027 0.468,-0.027 0.664,0 0.281,0.031 0.488,0.109 0.625,0.25 0.136,0.137 0.207,0.273 0.207,0.41 0,0.332 -0.207,0.5 -0.621,0.5 -0.282,0 -0.594,0 -0.957,0 -0.332,-0.031 -0.688,-0.043 -1.075,-0.043 -0.468,1.883 -0.707,3.61 -0.707,5.184 0,0.387 0.012,0.758 0.043,1.117 0.028,0.359 0.071,0.703 0.125,1.035 0.141,0.66 0.301,1.242 0.496,1.742 0.219,0.496 0.512,0.746 0.868,0.746 0.418,0 0.945,-0.398 1.578,-1.199 0.222,-0.254 0.429,-0.379 0.625,-0.379 0.136,0 0.242,0.059 0.328,0.172 0.082,0.137 0.07,0.313 -0.043,0.535 -0.606,1.246 -1.426,1.864 -2.442,1.864 -0.55,0 -1.097,-0.25 -1.621,-0.743 -0.496,-0.5 -0.851,-1.3 -1.074,-2.406 -0.164,-0.801 -0.25,-1.672 -0.25,-2.609 0,-0.774 0.043,-1.574 0.125,-2.406 0.109,-0.856 0.262,-1.739 0.453,-2.653 -1.129,0 -2.414,0.012 -3.851,0.043 -1.41,0 -2.832,0.07 -4.27,0.207 -0.023,0.055 -0.082,0.125 -0.164,0.207 -0.086,0.055 -0.152,0.114 -0.203,0.168 -1.109,1.246 -2.34,2.551 -3.691,3.934 -1.356,1.355 -2.762,2.625 -4.227,3.812 -1.438,1.188 -2.887,2.141 -4.352,2.86 -1.437,0.75 -2.808,1.121 -4.101,1.121 z M 24.91,70.875 c 1.352,-0.082 2.676,-0.141 3.977,-0.164 1.301,-0.055 2.457,-0.098 3.484,-0.125 0.492,-2.02 1.168,-4.008 2.024,-5.969 0.855,-1.992 1.781,-3.828 2.777,-5.512 0.996,-1.687 1.937,-3.07 2.82,-4.144 0.082,-0.113 0.207,-0.273 0.375,-0.492 0.16,-0.25 0.313,-0.469 0.457,-0.664 0.16,-0.227 0.219,-0.321 0.16,-0.293 -1.488,0.636 -3.519,2.457 -6.089,5.468 -2.543,2.985 -5.872,6.95 -9.985,11.895 z"
                 style="fill:#ffffff;fill-opacity:0.693694;fill-rule:nonzero;stroke:none"
                 id="path1715" />
              <path
                 d="m 41.898,79.863 c -1.105,0 -1.863,-0.328 -2.281,-0.992 -0.414,-0.664 -0.621,-1.465 -0.621,-2.402 0,-1.051 0.164,-2.25 0.5,-3.606 0.356,-1.351 0.817,-2.765 1.363,-4.23 0.582,-1.461 1.235,-2.899 1.954,-4.305 0.718,-1.406 1.449,-2.695 2.191,-3.851 0.746,-1.164 1.453,-2.114 2.113,-2.864 0.582,-0.633 1.133,-1.121 1.66,-1.453 0.547,-0.355 1.133,-0.644 1.739,-0.867 0.418,-0.164 0.832,-0.25 1.242,-0.25 0.558,0 1.027,0.137 1.414,0.418 0.41,0.277 0.617,0.73 0.617,1.363 0,0.614 -0.215,1.313 -0.66,2.114 -0.445,0.773 -0.996,1.562 -1.66,2.363 -0.66,0.801 -1.336,1.551 -2.028,2.238 -0.691,0.688 -1.304,1.258 -1.82,1.699 -1.164,0.965 -2.285,1.879 -3.359,2.735 -1.082,0.832 -1.977,1.668 -2.696,2.523 -0.386,1.082 -0.695,2.133 -0.914,3.152 -0.214,0.997 -0.332,1.895 -0.332,2.696 0,0.719 0.125,1.312 0.379,1.781 0.274,0.469 0.742,0.707 1.406,0.707 0.665,0 1.301,-0.211 1.907,-0.625 0.605,-0.441 1.187,-0.992 1.738,-1.656 0.582,-0.66 1.105,-1.324 1.574,-1.988 0.332,-0.469 0.653,-0.926 0.957,-1.372 0.332,-0.468 0.594,-0.839 0.782,-1.117 0.113,-0.195 0.296,-0.289 0.546,-0.289 0.301,0 0.454,0.153 0.454,0.457 0,0.196 -0.086,0.438 -0.25,0.746 -0.329,0.551 -0.762,1.219 -1.286,1.989 -0.527,0.773 -1.121,1.531 -1.785,2.281 -0.66,0.742 -1.406,1.363 -2.234,1.863 -0.801,0.5 -1.672,0.742 -2.61,0.742 z m 6.215,-21.422 c -0.605,0.664 -1.258,1.52 -1.945,2.575 -0.66,1.047 -1.332,2.207 -1.992,3.476 -0.664,1.274 -1.27,2.555 -1.821,3.856 0.883,-0.801 1.684,-1.481 2.403,-2.032 0.719,-0.582 1.433,-1.187 2.156,-1.824 0.629,-0.551 1.313,-1.226 2.031,-2.027 0.743,-0.832 1.434,-1.692 2.071,-2.57 0.636,-0.887 1.074,-1.7 1.324,-2.446 0.082,-0.304 0.125,-0.539 0.125,-0.707 0,-0.445 -0.219,-0.66 -0.664,-0.66 -0.11,0 -0.235,0.008 -0.375,0.043 -0.106,0.023 -0.231,0.066 -0.367,0.125 -0.5,0.191 -0.996,0.469 -1.496,0.824 -0.469,0.364 -0.95,0.813 -1.45,1.367 z"
                 style="fill:#ffffff;fill-opacity:0.693694;fill-rule:nonzero;stroke:none"
                 id="path1717" />
              <path
                 d="m 51.348,79.863 c -1.11,0 -1.864,-0.328 -2.285,-0.992 -0.415,-0.664 -0.618,-1.465 -0.618,-2.402 0,-1.051 0.168,-2.25 0.5,-3.606 0.356,-1.351 0.813,-2.765 1.364,-4.23 0.582,-1.461 1.23,-2.899 1.949,-4.305 0.722,-1.406 1.453,-2.695 2.195,-3.851 0.742,-1.164 1.453,-2.114 2.113,-2.864 0.582,-0.633 1.133,-1.121 1.657,-1.453 0.558,-0.355 1.132,-0.644 1.746,-0.867 0.414,-0.164 0.824,-0.25 1.238,-0.25 0.555,0 1.023,0.137 1.414,0.418 0.41,0.277 0.617,0.73 0.617,1.363 0,0.614 -0.218,1.313 -0.664,2.114 -0.441,0.773 -0.992,1.562 -1.656,2.363 -0.664,0.801 -1.336,1.551 -2.031,2.238 -0.688,0.688 -1.297,1.258 -1.821,1.699 -1.16,0.965 -2.281,1.879 -3.355,2.735 -1.082,0.832 -1.977,1.668 -2.695,2.523 -0.387,1.082 -0.688,2.133 -0.914,3.152 -0.219,0.997 -0.332,1.895 -0.332,2.696 0,0.719 0.125,1.312 0.375,1.781 0.277,0.469 0.746,0.707 1.406,0.707 0.664,0 1.301,-0.211 1.906,-0.625 0.609,-0.441 1.191,-0.992 1.738,-1.656 0.586,-0.66 1.11,-1.324 1.578,-1.988 0.332,-0.469 0.649,-0.926 0.957,-1.372 0.333,-0.468 0.594,-0.839 0.79,-1.117 0.105,-0.195 0.285,-0.289 0.535,-0.289 0.3,0 0.457,0.153 0.457,0.457 0,0.196 -0.086,0.438 -0.25,0.746 -0.332,0.551 -0.762,1.219 -1.289,1.989 -0.524,0.773 -1.118,1.531 -1.782,2.281 -0.664,0.742 -1.406,1.363 -2.23,1.863 -0.809,0.5 -1.676,0.742 -2.613,0.742 z m 6.215,-21.422 c -0.61,0.664 -1.258,1.52 -1.946,2.575 -0.664,1.047 -1.324,2.207 -1.996,3.476 -0.66,1.274 -1.269,2.555 -1.82,3.856 0.883,-0.801 1.683,-1.481 2.402,-2.032 0.719,-0.582 1.438,-1.187 2.156,-1.824 0.637,-0.551 1.313,-1.226 2.032,-2.027 0.746,-0.832 1.433,-1.692 2.07,-2.57 0.641,-0.887 1.078,-1.7 1.324,-2.446 0.082,-0.304 0.129,-0.539 0.129,-0.707 0,-0.445 -0.219,-0.66 -0.664,-0.66 -0.113,0 -0.238,0.008 -0.375,0.043 -0.105,0.023 -0.23,0.066 -0.367,0.125 -0.504,0.191 -0.996,0.469 -1.496,0.824 -0.469,0.364 -0.949,0.813 -1.449,1.367 z"
                 style="fill:#ffffff;fill-opacity:0.693694;fill-rule:nonzero;stroke:none"
                 id="path1719" />
              <path
                 d="m 73.68,62.922 c -0.137,0 -0.289,-0.031 -0.457,-0.09 -0.164,-0.051 -0.243,-0.176 -0.243,-0.367 0,-0.137 0.036,-0.262 0.118,-0.375 0.226,-0.414 0.629,-0.777 1.207,-1.074 0.609,-0.309 1.062,-0.457 1.363,-0.457 0.137,0 0.293,0.035 0.457,0.125 0.168,0.054 0.25,0.171 0.25,0.367 0,0.469 -0.289,0.902 -0.867,1.289 -0.559,0.387 -1.164,0.582 -1.828,0.582 z m -4.637,16.941 c -0.941,0 -1.691,-0.261 -2.242,-0.785 -0.547,-0.527 -0.824,-1.258 -0.824,-2.195 0,-0.551 0.05,-1.09 0.164,-1.613 0.113,-0.559 0.261,-1.094 0.453,-1.622 0.113,-0.296 0.332,-0.8 0.664,-1.484 0.355,-0.723 0.777,-1.473 1.246,-2.242 0.469,-0.801 0.926,-1.481 1.363,-2.031 0.442,-0.551 0.832,-0.832 1.16,-0.832 0.141,0 0.321,0.058 0.539,0.168 0.25,0.082 0.375,0.218 0.375,0.414 0,0.113 -0.054,0.25 -0.168,0.414 -0.632,0.718 -1.296,1.574 -1.988,2.57 -0.687,0.992 -1.269,2.031 -1.738,3.105 -0.469,1.083 -0.707,2.114 -0.707,3.11 0,1.273 0.605,1.906 1.824,1.906 0.828,0 1.66,-0.398 2.484,-1.199 0.856,-0.801 1.801,-1.879 2.821,-3.234 0.304,-0.387 0.57,-0.758 0.789,-1.122 0.25,-0.386 0.469,-0.718 0.66,-0.992 0.195,-0.195 0.402,-0.289 0.625,-0.289 0.332,0 0.496,0.125 0.496,0.371 0,0.305 -0.219,0.785 -0.664,1.449 -0.445,0.665 -0.937,1.36 -1.496,2.079 -1.074,1.324 -2.012,2.332 -2.813,3.023 -0.8,0.688 -1.812,1.031 -3.023,1.031 z"
                 style="fill:#ffffff;fill-opacity:0.693694;fill-rule:nonzero;stroke:none"
                 id="path1721" />
              <path
                 d="m 78.199,79.953 c -0.136,0 -0.293,-0.047 -0.457,-0.125 -0.168,-0.09 -0.246,-0.195 -0.246,-0.332 0,-0.226 0.043,-0.418 0.121,-0.582 0.305,-0.664 0.692,-1.48 1.16,-2.445 0.5,-0.969 0.981,-1.965 1.45,-2.981 0.5,-1.05 0.914,-2.035 1.242,-2.945 0.363,-0.914 0.539,-1.645 0.539,-2.195 0,-0.168 -0.035,-0.321 -0.125,-0.457 -0.051,-0.168 -0.188,-0.25 -0.414,-0.25 -0.328,0 -0.66,0.136 -0.992,0.414 -0.301,0.281 -0.582,0.593 -0.825,0.957 -0.25,0.332 -0.457,0.605 -0.625,0.824 -0.55,0.75 -1.019,1.437 -1.41,2.074 -0.387,0.61 -0.785,1.215 -1.199,1.82 -0.387,0.583 -0.875,1.235 -1.449,1.954 -0.09,0.109 -0.18,0.207 -0.297,0.285 -0.078,0.058 -0.203,0.09 -0.367,0.09 -0.168,0 -0.305,-0.09 -0.418,-0.25 -0.137,-0.172 -0.16,-0.321 -0.082,-0.457 0.605,-0.969 1.199,-1.883 1.781,-2.739 0.582,-0.883 1.094,-1.64 1.535,-2.277 0.442,-0.637 0.746,-1.063 0.91,-1.289 0.469,-0.606 0.957,-1.188 1.449,-1.738 0.528,-0.547 1.235,-0.825 2.114,-0.825 0.746,0 1.258,0.207 1.535,0.618 0.305,0.414 0.457,0.902 0.457,1.453 0,0.992 -0.414,2.273 -1.246,3.851 1.027,-1.078 2.113,-2.058 3.277,-2.937 1.188,-0.891 2.293,-1.621 3.313,-2.203 1.027,-0.606 1.797,-0.973 2.32,-1.114 0.25,-0.086 0.5,-0.156 0.75,-0.211 0.273,-0.05 0.527,-0.082 0.742,-0.082 0.278,0 0.496,0.071 0.664,0.207 0.196,0.137 0.289,0.399 0.289,0.786 0,0.39 -0.246,0.937 -0.746,1.656 -0.5,0.695 -1.105,1.496 -1.824,2.41 -0.687,0.883 -1.352,1.781 -1.988,2.695 -0.633,0.907 -1.086,1.762 -1.364,2.563 -0.089,0.191 -0.144,0.387 -0.168,0.582 -0.027,0.168 -0.042,0.32 -0.042,0.457 0,0.742 0.347,1.117 1.035,1.117 0.445,0 0.996,-0.219 1.66,-0.66 0.387,-0.25 0.762,-0.527 1.117,-0.832 0.387,-0.332 0.676,-0.621 0.871,-0.871 0.418,-0.469 0.75,-0.871 0.992,-1.199 0.282,-0.332 0.543,-0.688 0.789,-1.075 0.274,-0.422 0.625,-0.929 1.039,-1.531 0.079,-0.144 0.161,-0.238 0.247,-0.297 0.082,-0.054 0.222,-0.082 0.414,-0.082 0.304,0 0.457,0.195 0.457,0.582 0,0.164 -0.125,0.457 -0.375,0.871 -0.246,0.387 -0.551,0.825 -0.914,1.325 -0.332,0.468 -0.665,0.914 -0.993,1.328 -0.3,0.386 -0.527,0.66 -0.664,0.828 -0.3,0.359 -0.687,0.73 -1.156,1.121 -0.445,0.383 -0.902,0.711 -1.371,0.992 -0.445,0.246 -0.895,0.426 -1.367,0.539 -0.469,0.106 -0.926,0.164 -1.364,0.164 -0.718,0 -1.246,-0.207 -1.578,-0.621 -0.304,-0.414 -0.457,-0.855 -0.457,-1.324 0,-0.719 0.243,-1.531 0.711,-2.445 0.492,-0.946 1.074,-1.872 1.739,-2.778 0.683,-0.941 1.324,-1.781 1.906,-2.531 0.605,-0.742 1.019,-1.281 1.242,-1.613 0.051,-0.082 0.094,-0.149 0.125,-0.207 0.027,-0.082 0.039,-0.157 0.039,-0.207 0,-0.223 -0.164,-0.329 -0.496,-0.329 -0.168,0 -0.359,0.036 -0.582,0.125 -1.129,0.469 -2.316,1.157 -3.563,2.067 -1.218,0.914 -2.351,1.906 -3.402,2.984 -1.016,1.051 -1.832,2.043 -2.445,2.981 l -1.656,2.613 c -0.137,0.219 -0.262,0.457 -0.368,0.703 -0.113,0.223 -0.238,0.442 -0.375,0.668 -0.164,0.219 -0.375,0.332 -0.621,0.332 z"
                 style="fill:#ffffff;fill-opacity:0.693694;fill-rule:nonzero;stroke:none"
                 id="path1723" />
              <path
                 d="m 115.785,82.727 c -0.445,0 -0.887,-0.028 -1.324,-0.086 -0.422,-0.024 -0.848,-0.055 -1.289,-0.082 -1.715,-0.219 -3.121,-0.825 -4.227,-1.825 -1.074,-0.964 -1.875,-2.125 -2.402,-3.476 -0.5,-1.383 -0.742,-2.738 -0.742,-4.067 0,-1.211 0.148,-2.398 0.449,-3.562 0.332,-1.188 0.762,-2.332 1.289,-3.438 1.406,-2.871 3.313,-5.429 5.715,-7.668 2.43,-2.238 5.293,-3.988 8.578,-5.261 l -0.039,-0.164 c -1.438,0.058 -2.969,0.218 -4.602,0.492 -1.632,0.285 -3.234,0.664 -4.808,1.164 -1.543,0.5 -2.914,1.121 -4.102,1.863 -2.043,1.219 -3.062,2.891 -3.062,5.016 0,0.387 -0.239,0.582 -0.707,0.582 -0.446,0 -0.664,-0.195 -0.664,-0.582 0,-2.516 1.203,-4.488 3.609,-5.93 1.43,-0.855 3.063,-1.555 4.887,-2.113 1.82,-0.551 3.703,-0.961 5.636,-1.235 1.93,-0.281 3.747,-0.421 5.426,-0.421 0.418,0 0.832,0 1.246,0 0.411,0 0.828,0.031 1.243,0.086 0.8,-0.192 1.613,-0.348 2.445,-0.454 0.824,-0.113 1.656,-0.168 2.488,-0.168 0.301,0 0.699,0.043 1.199,0.125 0.528,0.055 1.036,0.168 1.532,0.329 0.527,0.14 0.972,0.332 1.328,0.582 0.363,0.254 0.535,0.562 0.535,0.953 0,0.168 -0.067,0.304 -0.203,0.418 -0.137,0.082 -0.309,0.117 -0.496,0.117 -0.192,0 -0.328,-0.035 -0.418,-0.117 -0.082,-0.09 -0.16,-0.196 -0.242,-0.332 -0.282,-0.477 -0.778,-0.739 -1.497,-0.785 -0.718,-0.09 -1.355,-0.129 -1.906,-0.129 -0.082,0 -0.18,0.011 -0.289,0.039 -0.086,0 -0.18,0 -0.293,0 l -0.039,0.168 c 2.711,0.777 4.777,2.113 6.215,4.019 1.437,1.879 2.152,4.047 2.152,6.504 0,2.02 -0.41,3.984 -1.238,5.883 -0.832,1.883 -1.977,3.652 -3.438,5.308 -1.437,1.625 -3.125,3.067 -5.058,4.309 -1.906,1.242 -3.965,2.207 -6.18,2.902 -2.179,0.688 -4.414,1.036 -6.707,1.036 z m -0.043,-1.207 c 2.125,0 4.227,-0.329 6.301,-0.993 2.07,-0.664 4.016,-1.574 5.84,-2.73 1.828,-1.164 3.426,-2.504 4.808,-4.024 1.383,-1.543 2.457,-3.207 3.235,-4.968 0.801,-1.793 1.199,-3.633 1.199,-5.516 0,-1.957 -0.469,-3.66 -1.406,-5.094 -0.946,-1.437 -2.239,-2.574 -3.899,-3.398 -1.629,-0.856 -3.539,-1.379 -5.718,-1.574 -4.008,0.882 -7.485,2.527 -10.442,4.925 -2.957,2.379 -5.222,5.211 -6.797,8.5 -0.523,1.047 -0.937,2.145 -1.246,3.274 -0.297,1.101 -0.453,2.242 -0.453,3.394 0,1.133 0.203,2.297 0.625,3.485 0.41,1.156 1.063,2.168 1.945,3.027 0.911,0.856 2.114,1.383 3.606,1.57 0.387,0.055 0.789,0.086 1.203,0.086 0.41,0.024 0.809,0.036 1.199,0.036 z"
                 style="fill:#ffffff;fill-opacity:0.693694;fill-rule:nonzero;stroke:none"
                 id="path1725" />
              <path
                 d="m 140.027,79.953 c -0.14,0 -0.293,-0.047 -0.457,-0.125 -0.168,-0.09 -0.25,-0.195 -0.25,-0.332 0,-0.226 0.043,-0.418 0.125,-0.582 0.305,-0.664 0.696,-1.48 1.164,-2.445 0.493,-0.969 0.973,-1.965 1.45,-2.981 0.496,-1.05 0.906,-2.035 1.238,-2.945 0.363,-0.914 0.543,-1.645 0.543,-2.195 0,-0.168 -0.043,-0.321 -0.125,-0.457 -0.055,-0.168 -0.195,-0.25 -0.418,-0.25 -0.332,0 -0.664,0.136 -0.996,0.414 -0.297,0.281 -0.574,0.593 -0.824,0.957 -0.25,0.332 -0.457,0.605 -0.625,0.824 -0.551,0.75 -1.02,1.437 -1.407,2.074 -0.386,0.61 -0.789,1.215 -1.203,1.82 -0.387,0.583 -0.867,1.235 -1.449,1.954 -0.082,0.109 -0.18,0.207 -0.289,0.285 -0.086,0.058 -0.211,0.09 -0.371,0.09 -0.172,0 -0.309,-0.09 -0.414,-0.25 -0.137,-0.172 -0.168,-0.321 -0.09,-0.457 0.613,-0.969 1.207,-1.883 1.785,-2.739 0.582,-0.883 1.094,-1.64 1.539,-2.277 0.434,-0.637 0.742,-1.063 0.902,-1.289 0.473,-0.606 0.961,-1.188 1.454,-1.738 0.523,-0.547 1.23,-0.825 2.113,-0.825 0.75,0 1.258,0.207 1.535,0.618 0.301,0.414 0.453,0.902 0.453,1.453 0,0.992 -0.414,2.273 -1.238,3.851 1.019,-1.078 2.113,-2.058 3.269,-2.937 1.188,-0.891 2.297,-1.621 3.317,-2.203 1.023,-0.606 1.801,-0.973 2.324,-1.114 0.242,-0.086 0.492,-0.156 0.742,-0.211 0.278,-0.05 0.528,-0.082 0.746,-0.082 0.274,0 0.5,0.071 0.66,0.207 0.196,0.137 0.297,0.399 0.297,0.786 0,0.39 -0.25,0.937 -0.75,1.656 -0.496,0.695 -1.101,1.496 -1.82,2.41 -0.695,0.883 -1.355,1.781 -1.988,2.695 -0.637,0.907 -1.094,1.762 -1.371,2.563 -0.082,0.191 -0.137,0.387 -0.168,0.582 -0.024,0.168 -0.039,0.32 -0.039,0.457 0,0.742 0.347,1.117 1.031,1.117 0.445,0 0.996,-0.219 1.66,-0.66 0.387,-0.25 0.762,-0.527 1.117,-0.832 0.387,-0.332 0.684,-0.621 0.875,-0.871 0.414,-0.469 0.746,-0.871 0.996,-1.199 0.274,-0.332 0.539,-0.688 0.789,-1.075 0.274,-0.422 0.618,-0.929 1.032,-1.531 0.086,-0.144 0.168,-0.238 0.25,-0.297 0.082,-0.054 0.218,-0.082 0.41,-0.082 0.308,0 0.457,0.195 0.457,0.582 0,0.164 -0.125,0.457 -0.367,0.871 -0.25,0.387 -0.559,0.825 -0.914,1.325 -0.332,0.468 -0.664,0.914 -0.993,1.328 -0.308,0.386 -0.527,0.66 -0.664,0.828 -0.308,0.359 -0.695,0.73 -1.164,1.121 -0.441,0.383 -0.898,0.711 -1.367,0.992 -0.441,0.246 -0.894,0.426 -1.363,0.539 -0.473,0.106 -0.926,0.164 -1.371,0.164 -0.719,0 -1.246,-0.207 -1.575,-0.621 -0.3,-0.414 -0.457,-0.855 -0.457,-1.324 0,-0.719 0.239,-1.531 0.707,-2.445 0.493,-0.946 1.075,-1.872 1.739,-2.778 0.691,-0.941 1.324,-1.781 1.906,-2.531 0.605,-0.742 1.027,-1.281 1.242,-1.613 0.059,-0.082 0.098,-0.149 0.125,-0.207 0.028,-0.082 0.039,-0.157 0.039,-0.207 0,-0.223 -0.164,-0.329 -0.492,-0.329 -0.172,0 -0.363,0.036 -0.582,0.125 -1.133,0.469 -2.32,1.157 -3.566,2.067 -1.211,0.914 -2.344,1.906 -3.395,2.984 -1.023,1.051 -1.836,2.043 -2.445,2.981 l -1.656,2.613 c -0.145,0.219 -0.262,0.457 -0.375,0.703 -0.114,0.223 -0.239,0.442 -0.375,0.668 -0.161,0.219 -0.368,0.332 -0.618,0.332 z"
                 style="fill:#ffffff;fill-opacity:0.693694;fill-rule:nonzero;stroke:none"
                 id="path1727" />
              <path
                 d="m 159.754,80.238 c -1.438,0 -2.445,-0.41 -3.027,-1.242 -0.559,-0.855 -0.832,-1.851 -0.832,-2.984 0,-0.832 0.207,-1.805 0.625,-2.946 0.414,-1.156 0.976,-2.285 1.695,-3.394 0.75,-1.106 1.609,-2.02 2.57,-2.738 0.969,-0.743 2.008,-1.114 3.11,-1.114 0.718,0 1.285,0.207 1.699,0.621 0.441,0.387 0.66,0.879 0.66,1.493 0,1.16 -0.375,2.277 -1.117,3.351 -0.746,1.082 -1.715,1.965 -2.903,2.66 -1.187,0.684 -2.457,1.032 -3.812,1.032 -0.164,0 -0.332,0 -0.496,0 -0.168,-0.028 -0.328,-0.059 -0.5,-0.082 -0.078,0.355 -0.117,0.773 -0.117,1.242 0,0.718 0.164,1.383 0.492,1.988 0.363,0.609 1.039,0.914 2.031,0.914 0.828,0 1.633,-0.207 2.402,-0.625 0.778,-0.414 1.426,-0.883 1.954,-1.406 0.523,-0.524 0.96,-0.996 1.324,-1.406 0.355,-0.422 0.73,-0.891 1.117,-1.414 0.391,-0.551 0.871,-1.27 1.453,-2.153 0.106,-0.191 0.273,-0.293 0.492,-0.293 0.391,0 0.582,0.207 0.582,0.625 0,0.137 -0.023,0.246 -0.082,0.332 -0.75,1.27 -1.574,2.481 -2.488,3.645 -0.91,1.133 -1.93,2.07 -3.063,2.82 -1.105,0.715 -2.363,1.074 -3.769,1.074 z m -1.039,-6.543 c 1.051,0 2.031,-0.277 2.937,-0.832 0.946,-0.582 1.703,-1.297 2.286,-2.152 0.605,-0.856 0.91,-1.731 0.91,-2.613 0,-0.309 -0.086,-0.551 -0.25,-0.743 -0.137,-0.195 -0.387,-0.296 -0.743,-0.296 -0.718,0 -1.414,0.25 -2.078,0.75 -0.66,0.468 -1.269,1.078 -1.816,1.82 -0.527,0.719 -0.984,1.437 -1.371,2.156 -0.356,0.719 -0.621,1.328 -0.789,1.828 0.14,0.024 0.277,0.051 0.414,0.082 0.168,0 0.332,0 0.5,0 z"
                 style="fill:#ffffff;fill-opacity:0.693694;fill-rule:nonzero;stroke:none"
                 id="path1729" />
            </g>
          </g>
        </g>
      </g>
      <path
         d="M 7.859,45.969 V 5.695 h 6.321 c 3.672,0 6.355,0.239 8.054,0.715 2.407,0.637 4.329,1.824 5.746,3.559 1.426,1.73 2.137,3.773 2.137,6.133 0,1.531 -0.332,2.925 -0.988,4.187 -0.637,1.238 -1.688,2.41 -3.145,3.504 2.446,1.148 4.235,2.594 5.368,4.324 1.128,1.715 1.691,3.754 1.691,6.102 0,2.265 -0.578,4.328 -1.75,6.191 -1.168,1.863 -2.676,3.258 -4.516,4.192 -1.843,0.91 -4.386,1.367 -7.636,1.367 z m 7.664,-32.965 v 8.488 h 1.672 c 1.864,0 3.239,-0.39 4.133,-1.176 0.91,-0.789 1.371,-1.851 1.371,-3.203 0,-1.261 -0.426,-2.258 -1.289,-2.988 -0.859,-0.742 -2.164,-1.121 -3.914,-1.121 z m 0,15.336 v 10.32 h 1.915 c 3.175,0 5.316,-0.398 6.41,-1.207 1.113,-0.801 1.668,-1.969 1.668,-3.5 0,-1.738 -0.645,-3.109 -1.946,-4.109 -1.293,-1.008 -3.445,-1.504 -6.457,-1.504 z"
         style="fill:#ffffff;fill-opacity:1;fill-rule:nonzero;stroke:none"
         id="path1737" />
      <path
         d="m 61.406,16.184 h 7.449 v 29.785 h -7.449 v -3.153 c -1.457,1.391 -2.926,2.399 -4.41,3.016 -1.453,0.602 -3.043,0.906 -4.762,0.906 -3.851,0 -7.179,-1.488 -9.992,-4.465 -2.808,-2.992 -4.215,-6.707 -4.215,-11.14 0,-4.602 1.356,-8.375 4.078,-11.313 2.719,-2.937 6.028,-4.406 9.911,-4.406 1.789,0 3.468,0.336 5.039,1.012 1.57,0.676 3.019,1.687 4.351,3.039 z m -7.851,6.132 c -2.321,0 -4.246,0.821 -5.778,2.465 -1.539,1.625 -2.3,3.711 -2.3,6.262 0,2.578 0.773,4.699 2.324,6.355 1.57,1.665 3.496,2.493 5.777,2.493 2.356,0 4.309,-0.813 5.86,-2.438 1.55,-1.644 2.324,-3.789 2.324,-6.433 0,-2.59 -0.774,-4.688 -2.324,-6.297 -1.551,-1.606 -3.516,-2.407 -5.883,-2.407 z M 55.441,0 h 8.84 L 54.258,10.73 h -5.363 z"
         style="fill:#ffffff;fill-opacity:1;fill-rule:nonzero;stroke:none"
         id="path1739" />
      <path
         d="m 94.477,20.34 -4.625,4.629 c -1.879,-1.86 -3.586,-2.789 -5.118,-2.789 -0.843,0 -1.5,0.179 -1.976,0.543 -0.473,0.351 -0.711,0.789 -0.711,1.32 0,0.398 0.148,0.773 0.437,1.117 0.313,0.332 1.063,0.789 2.25,1.371 l 2.731,1.367 c 2.89,1.426 4.867,2.879 5.949,4.352 1.074,1.484 1.613,3.215 1.613,5.203 0,2.645 -0.976,4.86 -2.933,6.629 -1.934,1.77 -4.531,2.656 -7.805,2.656 -4.336,0 -7.809,-1.699 -10.394,-5.093 l 4.593,-5.012 c 0.875,1.019 1.903,1.851 3.071,2.492 1.179,0.617 2.234,0.93 3.144,0.93 0.988,0 1.781,-0.239 2.383,-0.711 0.598,-0.477 0.906,-1.02 0.906,-1.641 0,-1.152 -1.086,-2.277 -3.258,-3.367 l -2.519,-1.258 c -4.82,-2.433 -7.227,-5.473 -7.227,-9.125 0,-2.348 0.899,-4.355 2.707,-6.019 1.825,-1.676 4.153,-2.52 6.985,-2.52 1.929,0 3.75,0.43 5.445,1.289 1.719,0.836 3.168,2.047 4.352,3.637 z"
         style="fill:#ffffff;fill-opacity:1;fill-rule:nonzero;stroke:none"
         id="path1741" />
      <path
         d="m 129.902,22.203 -6.214,3.426 c -1.168,-1.223 -2.325,-2.074 -3.477,-2.551 -1.133,-0.473 -2.465,-0.711 -3.996,-0.711 -2.793,0 -5.059,0.844 -6.789,2.52 -1.719,1.66 -2.574,3.793 -2.574,6.406 0,2.539 0.828,4.609 2.492,6.219 1.66,1.605 3.84,2.406 6.539,2.406 3.34,0 5.941,-1.141 7.805,-3.422 l 5.882,4.027 c -3.187,4.141 -7.695,6.215 -13.523,6.215 -5.234,0 -9.34,-1.554 -12.317,-4.656 -2.957,-3.102 -4.433,-6.734 -4.433,-10.898 0,-2.883 0.719,-5.543 2.156,-7.969 1.445,-2.426 3.453,-4.332 6.027,-5.719 2.59,-1.391 5.485,-2.082 8.68,-2.082 2.957,0 5.613,0.594 7.965,1.781 2.355,1.168 4.285,2.84 5.777,5.008 z"
         style="fill:#ffffff;fill-opacity:1;fill-rule:nonzero;stroke:none"
         id="path1743" />
      <path
         d="m 136.441,16.184 h 7.563 v 14.343 c 0,2.793 0.187,4.739 0.574,5.832 0.379,1.075 0.992,1.914 1.832,2.52 0.856,0.601 1.906,0.902 3.145,0.902 1.246,0 2.293,-0.289 3.152,-0.879 0.875,-0.597 1.523,-1.472 1.945,-2.625 0.309,-0.855 0.461,-2.695 0.461,-5.5 V 16.184 h 7.504 v 12.617 c 0,5.203 -0.414,8.765 -1.234,10.679 -1,2.336 -2.481,4.133 -4.43,5.395 -1.957,1.238 -4.441,1.863 -7.449,1.863 -3.27,0 -5.914,-0.73 -7.941,-2.195 -2.008,-1.457 -3.418,-3.496 -4.243,-6.102 -0.582,-1.808 -0.879,-5.093 -0.879,-9.859 z"
         style="fill:#ffffff;fill-opacity:1;fill-rule:nonzero;stroke:none"
         id="path1745" />
      <path
         d="m 169.156,4.684 h 7.48 v 41.285 h -7.48 z"
         style="fill:#ffffff;fill-opacity:1;fill-rule:nonzero;stroke:none"
         id="path1747" />
      <path
         d="m 205.242,16.184 h 7.446 v 29.785 h -7.446 v -3.153 c -1.465,1.391 -2.933,2.399 -4.41,3.016 -1.461,0.602 -3.051,0.906 -4.766,0.906 -3.851,0 -7.183,-1.488 -9.988,-4.465 -2.816,-2.992 -4.223,-6.707 -4.223,-11.14 0,-4.602 1.364,-8.375 4.083,-11.313 2.718,-2.937 6.023,-4.406 9.91,-4.406 1.789,0 3.472,0.336 5.043,1.012 1.566,0.676 3.019,1.687 4.351,3.039 z m -7.863,6.132 c -2.316,0 -4.238,0.821 -5.777,2.465 -1.532,1.625 -2.297,3.711 -2.297,6.262 0,2.578 0.781,4.699 2.332,6.355 1.566,1.665 3.492,2.493 5.777,2.493 2.348,0 4.305,-0.813 5.856,-2.438 1.55,-1.644 2.328,-3.789 2.328,-6.433 0,-2.59 -0.778,-4.688 -2.328,-6.297 -1.551,-1.606 -3.512,-2.407 -5.891,-2.407 z"
         style="fill:#ffffff;fill-opacity:1;fill-rule:nonzero;stroke:none"
         id="path1749" />
    </g>
  </g>
</svg>
